<svg xmlns="http://www.w3.org/2000/svg" xmlns:xlink="http://www.w3.org/1999/xlink" width="500" zoomAndPan="magnify" viewBox="0 0 375 374.999991" height="500" preserveAspectRatio="xMidYMid meet" version="1.0"><defs><g/><clipPath id="ada0fe783d"><path d="M 106.203125 77.964844 L 268.953125 77.964844 L 268.953125 240.714844 L 106.203125 240.714844 Z M 106.203125 77.964844 " clip-rule="nonzero"/></clipPath><clipPath id="e325c06db5"><path d="M 236.664062 293 L 248 293 L 248 294.5625 L 236.664062 294.5625 Z M 236.664062 293 " clip-rule="nonzero"/></clipPath><clipPath id="42a8b2f239"><path d="M 236.664062 291 L 254 291 L 254 293 L 236.664062 293 Z M 236.664062 291 " clip-rule="nonzero"/></clipPath><clipPath id="ee7868e535"><path d="M 236.664062 288 L 259 288 L 259 290 L 236.664062 290 Z M 236.664062 288 " clip-rule="nonzero"/></clipPath><clipPath id="69defd065c"><path d="M 236.664062 286 L 264 286 L 264 288 L 236.664062 288 Z M 236.664062 286 " clip-rule="nonzero"/></clipPath><clipPath id="f74fda5dd8"><path d="M 236.664062 284.074219 L 268.914062 284.074219 L 268.914062 285 L 236.664062 285 Z M 236.664062 284.074219 " clip-rule="nonzero"/></clipPath><clipPath id="6881e8372b"><path d="M 127 293 L 138.324219 293 L 138.324219 294.5625 L 127 294.5625 Z M 127 293 " clip-rule="nonzero"/></clipPath><clipPath id="3444bdabc7"><path d="M 121 291 L 138.324219 291 L 138.324219 293 L 121 293 Z M 121 291 " clip-rule="nonzero"/></clipPath><clipPath id="d1bbc56422"><path d="M 116 288 L 138.324219 288 L 138.324219 290 L 116 290 Z M 116 288 " clip-rule="nonzero"/></clipPath><clipPath id="f5e586c0da"><path d="M 111 286 L 138.324219 286 L 138.324219 288 L 111 288 Z M 111 286 " clip-rule="nonzero"/></clipPath><clipPath id="1adf1d7de8"><path d="M 106.203125 284.074219 L 138.324219 284.074219 L 138.324219 285 L 106.203125 285 Z M 106.203125 284.074219 " clip-rule="nonzero"/></clipPath></defs><g clip-path="url(#ada0fe783d)"><path fill="#309b7d" d="M 209.109375 240.53125 L 165.863281 240.53125 C 159.816406 240.53125 154.894531 235.613281 154.894531 229.5625 L 154.894531 221.457031 C 154.894531 215.851562 156.929688 210.445312 160.617188 206.238281 C 166.78125 199.207031 182.757812 182.296875 197.914062 177.125 L 200.085938 176.382812 C 218.28125 167.410156 232.265625 152.035156 239.472656 133.082031 L 246.886719 111.140625 C 246.992188 110.824219 246.875 110.570312 246.796875 110.445312 C 246.71875 110.328125 246.539062 110.121094 246.214844 110.085938 C 241.761719 109.601562 237.457031 111.800781 235.242188 115.679688 L 226.675781 130.632812 C 221.515625 139.667969 213.390625 146.867188 203.1875 151.449219 C 193.8125 155.660156 187.09375 157.339844 182.558594 152.710938 C 181.617188 151.753906 181.171875 150.523438 181.277344 149.15625 C 181.570312 145.339844 186.503906 140.914062 190.589844 137.875 C 198.875 131.707031 199.410156 126.625 199.445312 126.011719 C 199.242188 124.628906 198.035156 123.882812 196.972656 123.882812 C 196.523438 123.882812 196.089844 124.007812 195.683594 124.253906 L 171.445312 138.886719 C 165.308594 142.09375 160.664062 147.449219 158.367188 153.976562 L 155.683594 161.617188 C 153.082031 169 149.441406 175.949219 144.863281 182.273438 C 140.53125 188.265625 133.570312 191.839844 126.238281 191.839844 L 117.171875 191.839844 C 111.121094 191.839844 106.203125 186.917969 106.203125 180.871094 L 106.203125 137.625 C 106.203125 131.578125 111.121094 126.65625 117.171875 126.65625 L 148.3125 126.65625 C 151.941406 126.65625 154.894531 123.703125 154.894531 120.074219 L 154.894531 88.933594 C 154.894531 82.882812 159.816406 77.964844 165.863281 77.964844 L 209.109375 77.964844 C 215.15625 77.964844 220.078125 82.882812 220.078125 88.933594 L 220.078125 120.074219 C 220.078125 122.816406 221.734375 125.1875 224.175781 126.171875 L 231.433594 113.5 C 234.511719 108.109375 240.5 105.054688 246.683594 105.722656 C 248.242188 105.886719 249.632812 106.746094 250.484375 108.070312 C 251.34375 109.40625 251.546875 111.03125 251.046875 112.539062 L 246.273438 126.65625 L 257.800781 126.65625 C 263.847656 126.65625 268.769531 131.578125 268.769531 137.625 L 268.769531 180.871094 C 268.769531 186.917969 263.847656 191.839844 257.800781 191.839844 L 226.65625 191.839844 C 223.027344 191.839844 220.078125 194.792969 220.078125 198.421875 L 220.078125 229.5625 C 220.078125 235.613281 215.15625 240.53125 209.109375 240.53125 Z M 244.792969 131.042969 L 243.601562 134.5625 C 235.953125 154.679688 221.152344 170.925781 201.894531 180.382812 L 201.640625 180.488281 L 199.332031 181.277344 C 189.511719 184.628906 176.269531 195.042969 163.917969 209.128906 C 160.929688 212.539062 159.28125 216.917969 159.28125 221.457031 L 159.28125 229.5625 C 159.28125 233.191406 162.234375 236.144531 165.863281 236.144531 L 209.109375 236.144531 C 212.738281 236.144531 215.6875 233.191406 215.6875 229.5625 L 215.6875 198.421875 C 215.6875 192.371094 220.609375 187.453125 226.65625 187.453125 L 257.800781 187.453125 C 261.429688 187.453125 264.382812 184.5 264.382812 180.871094 L 264.382812 137.625 C 264.382812 133.996094 261.429688 131.046875 257.800781 131.046875 L 244.792969 131.046875 Z M 117.171875 131.042969 C 113.542969 131.042969 110.589844 133.996094 110.589844 137.625 L 110.589844 180.871094 C 110.589844 184.5 113.542969 187.453125 117.171875 187.453125 L 126.238281 187.453125 C 132.164062 187.453125 137.800781 184.554688 141.308594 179.703125 C 145.640625 173.714844 149.085938 167.140625 151.546875 160.160156 L 154.230469 152.519531 C 156.890625 144.964844 162.257812 138.753906 169.351562 135.03125 L 193.417969 120.496094 C 194.503906 119.84375 195.730469 119.496094 196.972656 119.496094 C 200.5 119.496094 203.445312 122.140625 203.820312 125.648438 L 203.832031 125.769531 C 203.871094 126.53125 203.90625 133.429688 193.210938 141.394531 C 187.105469 145.9375 185.464844 148.929688 185.65625 149.597656 C 187.730469 151.71875 191.070312 152.082031 201.390625 147.445312 C 210.15625 143.511719 217.226562 137.496094 221.949219 129.988281 C 218.195312 128.222656 215.691406 124.425781 215.691406 120.074219 L 215.691406 88.933594 C 215.691406 85.304688 212.738281 82.351562 209.109375 82.351562 L 165.863281 82.351562 C 162.234375 82.351562 159.28125 85.304688 159.28125 88.933594 L 159.28125 120.074219 C 159.28125 126.125 154.363281 131.042969 148.3125 131.042969 Z M 117.171875 131.042969 " fill-opacity="1" fill-rule="nonzero"/></g><g fill="#085049" fill-opacity="1"><g transform="translate(114.696932, 273.021654)"><g><path d="M 16.484375 -21.21875 L 16.484375 -15.9375 L 8.15625 -15.9375 L 8.15625 -13 L 14.140625 -13 L 14.140625 -8 L 8.15625 -8 L 8.15625 0 L 1.5 0 L 1.5 -21.21875 Z M 16.484375 -21.21875 "/></g></g></g><g fill="#085049" fill-opacity="1"><g transform="translate(131.929557, 273.021654)"><g><path d="M 8.15625 -21.21875 L 8.15625 0 L 1.5 0 L 1.5 -21.21875 Z M 8.15625 -21.21875 "/></g></g></g><g fill="#085049" fill-opacity="1"><g transform="translate(141.579828, 273.021654)"><g><path d="M 18.15625 -21.21875 L 18.15625 -15.9375 L 12.53125 -15.9375 L 12.53125 0 L 5.875 0 L 5.875 -15.9375 L 0.296875 -15.9375 L 0.296875 -21.21875 Z M 18.15625 -21.21875 "/></g></g></g><g fill="#085049" fill-opacity="1"><g transform="translate(160.04122, 273.021654)"><g><path d="M 16.484375 -21.21875 L 16.484375 -15.9375 L 8.15625 -15.9375 L 8.15625 -13 L 14.140625 -13 L 14.140625 -8 L 8.15625 -8 L 8.15625 0 L 1.5 0 L 1.5 -21.21875 Z M 16.484375 -21.21875 "/></g></g></g><g fill="#085049" fill-opacity="1"><g transform="translate(177.273845, 273.021654)"><g><path d="M 8.15625 -21.21875 L 8.15625 0 L 1.5 0 L 1.5 -21.21875 Z M 8.15625 -21.21875 "/></g></g></g><g fill="#085049" fill-opacity="1"><g transform="translate(186.924117, 273.021654)"><g><path d="M 21.84375 0 L 15.1875 0 L 8.15625 -10.671875 L 8.15625 0 L 1.5 0 L 1.5 -21.21875 L 8.15625 -21.21875 L 15.1875 -10.375 L 15.1875 -21.21875 L 21.84375 -21.21875 Z M 21.84375 0 "/></g></g></g><g fill="#085049" fill-opacity="1"><g transform="translate(210.270581, 273.021654)"><g><path d="M 8.15625 -21.21875 L 8.15625 0 L 1.5 0 L 1.5 -21.21875 Z M 8.15625 -21.21875 "/></g></g></g><g fill="#085049" fill-opacity="1"><g transform="translate(219.920853, 273.021654)"><g><path d="M 18.15625 -21.21875 L 18.15625 -15.9375 L 12.53125 -15.9375 L 12.53125 0 L 5.875 0 L 5.875 -15.9375 L 0.296875 -15.9375 L 0.296875 -21.21875 Z M 18.15625 -21.21875 "/></g></g></g><g fill="#085049" fill-opacity="1"><g transform="translate(238.382244, 273.021654)"><g><path d="M 21.875 -21.21875 L 14.265625 -6.4375 L 14.265625 0 L 7.609375 0 L 7.609375 -6.4375 L 0 -21.21875 L 7.609375 -21.21875 L 11 -13.703125 L 14.390625 -21.21875 Z M 21.875 -21.21875 "/></g></g></g><g fill="#000000" fill-opacity="1"><g transform="translate(147.363984, 293.721718)"><g><path d="M 8.0625 -9.15625 L 8.0625 0 L 6.875 0 L 6.875 -4.15625 L 2.203125 -4.15625 L 2.203125 0 L 1.015625 0 L 1.015625 -9.15625 L 2.203125 -9.15625 L 2.203125 -5.140625 L 6.875 -5.140625 L 6.875 -9.15625 Z M 8.0625 -9.15625 "/></g></g></g><g fill="#000000" fill-opacity="1"><g transform="translate(156.452189, 293.721718)"><g><path d="M 2.203125 -8.1875 L 2.203125 -5.125 L 5.546875 -5.125 L 5.546875 -4.140625 L 2.203125 -4.140625 L 2.203125 -0.984375 L 5.9375 -0.984375 L 5.9375 0 L 1.015625 0 L 1.015625 -9.171875 L 5.9375 -9.171875 L 5.9375 -8.1875 Z M 2.203125 -8.1875 "/></g></g></g><g fill="#000000" fill-opacity="1"><g transform="translate(163.189547, 293.721718)"><g><path d="M 6.421875 -2.03125 L 2.4375 -2.03125 L 1.6875 0 L 0.4375 0 L 3.75 -9.109375 L 5.125 -9.109375 L 8.421875 0 L 7.15625 0 Z M 6.078125 -3.015625 L 4.421875 -7.640625 L 2.765625 -3.015625 Z M 6.078125 -3.015625 "/></g></g></g><g fill="#000000" fill-opacity="1"><g transform="translate(172.041356, 293.721718)"><g><path d="M 2.203125 -0.96875 L 5.40625 -0.96875 L 5.40625 0 L 1.015625 0 L 1.015625 -9.15625 L 2.203125 -9.15625 Z M 2.203125 -0.96875 "/></g></g></g><g fill="#000000" fill-opacity="1"><g transform="translate(177.71492, 293.721718)"><g><path d="M 6.65625 -9.15625 L 6.65625 -8.1875 L 4.15625 -8.1875 L 4.15625 0 L 2.953125 0 L 2.953125 -8.1875 L 0.453125 -8.1875 L 0.453125 -9.15625 Z M 6.65625 -9.15625 "/></g></g></g><g fill="#000000" fill-opacity="1"><g transform="translate(184.820007, 293.721718)"><g><path d="M 8.0625 -9.15625 L 8.0625 0 L 6.875 0 L 6.875 -4.15625 L 2.203125 -4.15625 L 2.203125 0 L 1.015625 0 L 1.015625 -9.15625 L 2.203125 -9.15625 L 2.203125 -5.140625 L 6.875 -5.140625 L 6.875 -9.15625 Z M 8.0625 -9.15625 "/></g></g></g><g fill="#000000" fill-opacity="1"><g transform="translate(193.908212, 293.721718)"><g><path d="M 0.5625 -4.59375 C 0.5625 -5.476562 0.765625 -6.273438 1.171875 -6.984375 C 1.578125 -7.703125 2.125 -8.265625 2.8125 -8.671875 C 3.507812 -9.078125 4.285156 -9.28125 5.140625 -9.28125 C 6.140625 -9.28125 7.007812 -9.035156 7.75 -8.546875 C 8.5 -8.066406 9.039062 -7.382812 9.375 -6.5 L 7.953125 -6.5 C 7.691406 -7.050781 7.320312 -7.472656 6.84375 -7.765625 C 6.375 -8.066406 5.804688 -8.21875 5.140625 -8.21875 C 4.492188 -8.21875 3.914062 -8.066406 3.40625 -7.765625 C 2.90625 -7.472656 2.507812 -7.050781 2.21875 -6.5 C 1.925781 -5.957031 1.78125 -5.320312 1.78125 -4.59375 C 1.78125 -3.863281 1.925781 -3.222656 2.21875 -2.671875 C 2.507812 -2.128906 2.90625 -1.707031 3.40625 -1.40625 C 3.914062 -1.101562 4.492188 -0.953125 5.140625 -0.953125 C 5.804688 -0.953125 6.375 -1.097656 6.84375 -1.390625 C 7.320312 -1.691406 7.691406 -2.117188 7.953125 -2.671875 L 9.375 -2.671875 C 9.039062 -1.796875 8.5 -1.117188 7.75 -0.640625 C 7.007812 -0.160156 6.140625 0.078125 5.140625 0.078125 C 4.285156 0.078125 3.507812 -0.117188 2.8125 -0.515625 C 2.125 -0.910156 1.578125 -1.460938 1.171875 -2.171875 C 0.765625 -2.890625 0.5625 -3.695312 0.5625 -4.59375 Z M 0.5625 -4.59375 "/></g></g></g><g fill="#000000" fill-opacity="1"><g transform="translate(204.047075, 293.721718)"><g><path d="M 6.421875 -2.03125 L 2.4375 -2.03125 L 1.6875 0 L 0.4375 0 L 3.75 -9.109375 L 5.125 -9.109375 L 8.421875 0 L 7.15625 0 Z M 6.078125 -3.015625 L 4.421875 -7.640625 L 2.765625 -3.015625 Z M 6.078125 -3.015625 "/></g></g></g><g fill="#000000" fill-opacity="1"><g transform="translate(212.898884, 293.721718)"><g><path d="M 5.828125 0 L 3.65625 -3.75 L 2.203125 -3.75 L 2.203125 0 L 1.015625 0 L 1.015625 -9.15625 L 3.96875 -9.15625 C 4.65625 -9.15625 5.238281 -9.035156 5.71875 -8.796875 C 6.195312 -8.566406 6.554688 -8.25 6.796875 -7.84375 C 7.035156 -7.4375 7.15625 -6.976562 7.15625 -6.46875 C 7.15625 -5.832031 6.972656 -5.273438 6.609375 -4.796875 C 6.242188 -4.316406 5.695312 -4 4.96875 -3.84375 L 7.265625 0 Z M 2.203125 -4.703125 L 3.96875 -4.703125 C 4.613281 -4.703125 5.097656 -4.859375 5.421875 -5.171875 C 5.742188 -5.492188 5.90625 -5.925781 5.90625 -6.46875 C 5.90625 -7.007812 5.742188 -7.425781 5.421875 -7.71875 C 5.109375 -8.019531 4.625 -8.171875 3.96875 -8.171875 L 2.203125 -8.171875 Z M 2.203125 -4.703125 "/></g></g></g><g fill="#000000" fill-opacity="1"><g transform="translate(220.883901, 293.721718)"><g><path d="M 2.203125 -8.1875 L 2.203125 -5.125 L 5.546875 -5.125 L 5.546875 -4.140625 L 2.203125 -4.140625 L 2.203125 -0.984375 L 5.9375 -0.984375 L 5.9375 0 L 1.015625 0 L 1.015625 -9.171875 L 5.9375 -9.171875 L 5.9375 -8.1875 Z M 2.203125 -8.1875 "/></g></g></g><g clip-path="url(#e325c06db5)"><path fill="#085049" d="M 247.375 293.679688 L 237.105469 293.679688 C 236.863281 293.679688 236.664062 293.875 236.664062 294.117188 C 236.664062 294.359375 236.863281 294.558594 237.105469 294.558594 L 247.375 294.558594 C 247.617188 294.558594 247.8125 294.359375 247.8125 294.117188 C 247.8125 293.875 247.617188 293.679688 247.375 293.679688 " fill-opacity="1" fill-rule="nonzero"/></g><g clip-path="url(#42a8b2f239)"><path fill="#085049" d="M 252.726562 291.28125 L 237.105469 291.28125 C 236.863281 291.28125 236.664062 291.476562 236.664062 291.71875 C 236.664062 291.960938 236.863281 292.15625 237.105469 292.15625 L 252.726562 292.15625 C 252.96875 292.15625 253.164062 291.960938 253.164062 291.71875 C 253.164062 291.476562 252.96875 291.28125 252.726562 291.28125 " fill-opacity="1" fill-rule="nonzero"/></g><g clip-path="url(#ee7868e535)"><path fill="#085049" d="M 257.933594 288.878906 L 237.105469 288.878906 C 236.863281 288.878906 236.664062 289.078125 236.664062 289.320312 C 236.664062 289.5625 236.863281 289.757812 237.105469 289.757812 L 257.933594 289.757812 C 258.175781 289.757812 258.371094 289.5625 258.371094 289.320312 C 258.371094 289.078125 258.175781 288.878906 257.933594 288.878906 " fill-opacity="1" fill-rule="nonzero"/></g><g clip-path="url(#69defd065c)"><path fill="#085049" d="M 263.140625 286.480469 L 237.105469 286.480469 C 236.863281 286.480469 236.664062 286.675781 236.664062 286.917969 C 236.664062 287.160156 236.863281 287.359375 237.105469 287.359375 L 263.140625 287.359375 C 263.382812 287.359375 263.578125 287.160156 263.578125 286.917969 C 263.578125 286.675781 263.382812 286.480469 263.140625 286.480469 " fill-opacity="1" fill-rule="nonzero"/></g><g clip-path="url(#f74fda5dd8)"><path fill="#085049" d="M 268.347656 284.078125 L 237.105469 284.078125 C 236.863281 284.078125 236.664062 284.277344 236.664062 284.519531 C 236.664062 284.761719 236.863281 284.957031 237.105469 284.957031 L 268.347656 284.957031 C 268.589844 284.957031 268.785156 284.761719 268.785156 284.519531 C 268.785156 284.277344 268.589844 284.078125 268.347656 284.078125 " fill-opacity="1" fill-rule="nonzero"/></g><g clip-path="url(#6881e8372b)"><path fill="#085049" d="M 127.617188 293.679688 L 137.882812 293.679688 C 138.125 293.679688 138.324219 293.875 138.324219 294.117188 C 138.324219 294.359375 138.125 294.558594 137.882812 294.558594 L 127.617188 294.558594 C 127.371094 294.558594 127.175781 294.359375 127.175781 294.117188 C 127.175781 293.875 127.371094 293.679688 127.617188 293.679688 " fill-opacity="1" fill-rule="nonzero"/></g><g clip-path="url(#3444bdabc7)"><path fill="#085049" d="M 122.261719 291.28125 L 137.882812 291.28125 C 138.125 291.28125 138.324219 291.476562 138.324219 291.71875 C 138.324219 291.960938 138.125 292.15625 137.882812 292.15625 L 122.261719 292.15625 C 122.019531 292.15625 121.824219 291.960938 121.824219 291.71875 C 121.824219 291.476562 122.019531 291.28125 122.261719 291.28125 " fill-opacity="1" fill-rule="nonzero"/></g><g clip-path="url(#d1bbc56422)"><path fill="#085049" d="M 117.054688 288.878906 L 137.882812 288.878906 C 138.125 288.878906 138.324219 289.078125 138.324219 289.320312 C 138.324219 289.5625 138.125 289.757812 137.882812 289.757812 L 117.054688 289.757812 C 116.8125 289.757812 116.617188 289.5625 116.617188 289.320312 C 116.617188 289.078125 116.8125 288.878906 117.054688 288.878906 " fill-opacity="1" fill-rule="nonzero"/></g><g clip-path="url(#f5e586c0da)"><path fill="#085049" d="M 111.847656 286.480469 L 137.882812 286.480469 C 138.125 286.480469 138.324219 286.675781 138.324219 286.917969 C 138.324219 287.160156 138.125 287.359375 137.882812 287.359375 L 111.847656 287.359375 C 111.605469 287.359375 111.410156 287.160156 111.410156 286.917969 C 111.410156 286.675781 111.605469 286.480469 111.847656 286.480469 " fill-opacity="1" fill-rule="nonzero"/></g><g clip-path="url(#1adf1d7de8)"><path fill="#085049" d="M 106.640625 284.078125 L 137.882812 284.078125 C 138.125 284.078125 138.324219 284.277344 138.324219 284.519531 C 138.324219 284.761719 138.125 284.957031 137.882812 284.957031 L 106.640625 284.957031 C 106.398438 284.957031 106.203125 284.761719 106.203125 284.519531 C 106.203125 284.277344 106.398438 284.078125 106.640625 284.078125 " fill-opacity="1" fill-rule="nonzero"/></g></svg>