<svg xmlns="http://www.w3.org/2000/svg" xmlns:xlink="http://www.w3.org/1999/xlink" width="1080" zoomAndPan="magnify" viewBox="0 0 810 809.999993" height="1080" preserveAspectRatio="xMidYMid meet" version="1.0"><defs><clipPath id="e3de09bc24"><path d="M 394 415 L 445 415 L 445 481 L 394 481 Z M 394 415 " clip-rule="nonzero"/></clipPath><clipPath id="a65357aecd"><path d="M 417.21875 408.824219 L 463.667969 427.992188 L 439.921875 485.535156 L 393.46875 466.363281 Z M 417.21875 408.824219 " clip-rule="nonzero"/></clipPath><clipPath id="75cb40f3f7"><path d="M 417.21875 408.824219 L 463.667969 427.992188 L 439.921875 485.535156 L 393.46875 466.363281 Z M 417.21875 408.824219 " clip-rule="nonzero"/></clipPath><clipPath id="7dd778c64a"><path d="M 445 448 L 455 448 L 455 452 L 445 452 Z M 445 448 " clip-rule="nonzero"/></clipPath><clipPath id="073d60ce2c"><path d="M 417.21875 408.824219 L 463.667969 427.992188 L 439.921875 485.535156 L 393.46875 466.363281 Z M 417.21875 408.824219 " clip-rule="nonzero"/></clipPath><clipPath id="f9a336065f"><path d="M 417.21875 408.824219 L 463.667969 427.992188 L 439.921875 485.535156 L 393.46875 466.363281 Z M 417.21875 408.824219 " clip-rule="nonzero"/></clipPath><clipPath id="596683b28d"><path d="M 444 453 L 452 453 L 452 460 L 444 460 Z M 444 453 " clip-rule="nonzero"/></clipPath><clipPath id="25a91dab4d"><path d="M 417.21875 408.824219 L 463.667969 427.992188 L 439.921875 485.535156 L 393.46875 466.363281 Z M 417.21875 408.824219 " clip-rule="nonzero"/></clipPath><clipPath id="de8e888b6d"><path d="M 417.21875 408.824219 L 463.667969 427.992188 L 439.921875 485.535156 L 393.46875 466.363281 Z M 417.21875 408.824219 " clip-rule="nonzero"/></clipPath><clipPath id="fefaf776dc"><path d="M 446 441 L 455 441 L 455 446 L 446 446 Z M 446 441 " clip-rule="nonzero"/></clipPath><clipPath id="bf9a0f479b"><path d="M 417.21875 408.824219 L 463.667969 427.992188 L 439.921875 485.535156 L 393.46875 466.363281 Z M 417.21875 408.824219 " clip-rule="nonzero"/></clipPath><clipPath id="56529e2d25"><path d="M 417.21875 408.824219 L 463.667969 427.992188 L 439.921875 485.535156 L 393.46875 466.363281 Z M 417.21875 408.824219 " clip-rule="nonzero"/></clipPath></defs><rect x="-81" width="972" fill="#ffffff" y="-80.999999" height="971.999992" fill-opacity="1"/><rect x="-81" width="972" fill="#ffffff" y="-80.999999" height="971.999992" fill-opacity="1"/><path fill="#dcf6b1" d="M 692.972656 523.886719 C 657.265625 579.929688 594.660156 581.53125 538.296875 562.636719 C 532.054688 560.554688 525.808594 558.152344 519.882812 555.75 C 461.921875 530.453125 405.878906 568.5625 355.921875 594.179688 C 350 597.703125 343.753906 601.226562 337.507812 604.425781 C 293.15625 627.484375 240.957031 639.171875 206.371094 597.382812 C 185.238281 571.761719 190.359375 537.820312 190.199219 507.074219 C 190.039062 472.96875 177.871094 443.1875 159.617188 414.6875 C 135.28125 376.898438 102.777344 341.03125 94.289062 295.558594 C 82.121094 230.390625 106.457031 160.578125 174.828125 140.882812 C 218.222656 128.394531 262.574219 144.085938 305.644531 150.492188 C 340.710938 155.777344 376.578125 148.570312 409.402344 136.082031 C 415.328125 133.839844 421.410156 131.4375 427.335938 129.035156 C 467.046875 112.703125 506.433594 93.488281 548.226562 86.925781 C 585.695312 81 619.636719 90.925781 633.890625 129.035156 C 646.378906 162.5 637.570312 199.648438 643.175781 234.234375 C 646.21875 253.289062 653.582031 270.582031 662.070312 287.554688 C 676.960938 316.695312 696.015625 344.394531 704.5 376.257812 C 706.902344 385.386719 709.144531 394.832031 710.746094 404.441406 C 717.472656 444.949219 715.390625 488.820312 692.972656 523.886719 Z M 692.972656 523.886719 " fill-opacity="1" fill-rule="nonzero"/><path fill="#085049" d="M 658.066406 400.917969 L 646.21875 400.917969 C 643.816406 400.917969 641.894531 398.996094 641.894531 396.59375 L 641.894531 391.789062 C 638.210938 390.828125 634.851562 389.386719 631.648438 387.46875 L 628.445312 390.667969 C 626.84375 392.269531 623.960938 392.269531 622.359375 390.667969 L 614.035156 382.34375 C 612.433594 380.742188 612.433594 378.019531 614.035156 376.257812 L 617.398438 372.894531 C 615.476562 369.695312 614.195312 366.171875 613.234375 362.488281 L 608.75 362.488281 C 606.347656 362.488281 604.425781 360.566406 604.425781 358.164062 L 604.425781 346.316406 C 604.425781 343.914062 606.347656 341.992188 608.75 341.992188 L 613.554688 341.992188 C 614.515625 338.3125 615.957031 334.949219 617.878906 331.746094 L 614.675781 328.542969 C 613.074219 326.941406 613.074219 324.21875 614.675781 322.457031 L 623 314.132812 C 624.601562 312.53125 627.324219 312.53125 629.085938 314.132812 L 632.449219 317.496094 C 635.652344 315.574219 639.171875 314.292969 642.855469 313.332031 L 642.855469 308.847656 C 642.855469 306.445312 644.777344 304.527344 647.179688 304.527344 L 659.027344 304.527344 C 661.429688 304.527344 663.351562 306.445312 663.351562 308.847656 L 663.351562 313.652344 C 667.035156 314.613281 670.394531 316.054688 673.597656 317.976562 L 676.800781 314.773438 C 678.402344 313.171875 681.125 313.171875 682.886719 314.773438 L 691.210938 323.097656 C 692.011719 323.898438 692.492188 325.019531 692.492188 326.140625 C 692.492188 327.261719 692.011719 328.382812 691.210938 329.183594 L 687.847656 332.546875 C 689.769531 335.75 691.050781 339.269531 692.011719 342.953125 L 696.496094 342.953125 C 698.898438 342.953125 700.820312 344.875 700.820312 347.277344 L 700.820312 359.125 C 700.820312 361.527344 698.898438 363.449219 696.496094 363.449219 L 691.691406 363.449219 C 690.730469 367.132812 689.289062 370.496094 687.367188 373.695312 L 690.570312 376.898438 C 691.371094 377.699219 691.851562 378.820312 691.851562 379.941406 C 691.851562 381.0625 691.371094 382.183594 690.570312 382.984375 L 682.246094 391.308594 C 680.644531 392.910156 677.921875 392.910156 676.160156 391.308594 L 672.796875 387.949219 C 669.59375 389.867188 666.074219 391.148438 662.390625 392.109375 L 662.390625 396.59375 C 662.230469 398.996094 660.308594 400.917969 658.066406 400.917969 Z M 642.855469 390.507812 L 643.015625 390.507812 L 643.496094 390.988281 L 643.496094 396.753906 C 643.496094 398.195312 644.617188 399.476562 646.21875 399.476562 L 658.066406 399.476562 C 659.507812 399.476562 660.789062 398.355469 660.789062 396.753906 L 660.789062 391.148438 L 661.269531 390.667969 L 661.589844 390.667969 C 665.433594 389.867188 669.113281 388.269531 672.476562 386.347656 L 672.957031 385.867188 L 677.28125 390.1875 C 678.242188 391.148438 680.003906 391.148438 680.964844 390.1875 L 689.289062 381.863281 C 689.769531 381.382812 690.089844 380.742188 690.089844 379.941406 C 690.089844 379.300781 689.769531 378.5 689.289062 378.019531 L 685.128906 373.855469 L 685.449219 373.375 C 687.527344 370.015625 689.128906 366.332031 690.089844 362.488281 L 690.25 361.847656 L 696.175781 361.847656 C 697.617188 361.847656 698.898438 360.726562 698.898438 359.125 L 698.898438 347.277344 C 698.898438 345.835938 697.777344 344.554688 696.175781 344.554688 L 690.410156 344.554688 L 690.25 343.914062 C 689.449219 340.070312 687.847656 336.390625 685.765625 332.867188 L 685.449219 332.386719 L 689.769531 328.0625 C 690.25 327.582031 690.570312 326.941406 690.570312 326.140625 C 690.570312 325.5 690.25 324.699219 689.769531 324.21875 L 681.445312 315.894531 C 680.484375 314.933594 678.722656 314.933594 677.761719 315.894531 L 673.597656 320.058594 L 673.117188 319.738281 C 669.753906 317.65625 666.074219 316.054688 662.230469 315.09375 L 661.589844 314.933594 L 661.589844 309.007812 C 661.589844 307.566406 660.46875 306.285156 658.867188 306.285156 L 647.019531 306.285156 C 645.578125 306.285156 644.296875 307.40625 644.296875 309.007812 L 644.296875 314.773438 L 643.65625 314.933594 C 639.8125 315.734375 636.128906 317.335938 632.609375 319.417969 L 632.128906 319.738281 L 627.964844 315.574219 C 627.003906 314.613281 625.242188 314.613281 624.28125 315.574219 L 615.957031 323.898438 C 614.996094 324.859375 614.996094 326.621094 615.957031 327.582031 L 620.117188 331.746094 L 619.796875 332.226562 C 617.71875 335.589844 616.117188 339.269531 615.15625 343.113281 L 614.996094 343.753906 L 608.910156 343.753906 C 607.46875 343.753906 606.1875 344.875 606.1875 346.476562 L 606.1875 358.324219 C 606.1875 359.765625 607.308594 361.046875 608.910156 361.046875 L 614.675781 361.046875 L 614.835938 361.6875 C 615.636719 365.53125 617.238281 369.214844 619.320312 372.734375 L 619.636719 373.214844 L 615.316406 377.539062 C 614.355469 378.5 614.355469 380.261719 615.316406 381.222656 L 623.640625 389.546875 C 624.601562 390.507812 626.363281 390.507812 627.324219 389.546875 L 631.488281 385.386719 L 631.96875 385.707031 C 635.332031 387.949219 639.011719 389.546875 642.855469 390.507812 Z M 652.460938 375.617188 C 639.972656 375.617188 629.726562 365.371094 629.726562 352.882812 C 629.726562 340.390625 639.972656 330.144531 652.460938 330.144531 C 664.953125 330.144531 675.199219 340.390625 675.199219 352.882812 C 675.359375 365.53125 665.113281 375.617188 652.460938 375.617188 Z M 652.460938 331.746094 C 640.773438 331.746094 631.328125 341.191406 631.328125 352.882812 C 631.328125 364.570312 640.773438 374.015625 652.460938 374.015625 C 664.152344 374.015625 673.597656 364.570312 673.597656 352.882812 C 673.597656 341.191406 664.152344 331.746094 652.460938 331.746094 Z M 652.460938 331.746094 " fill-opacity="1" fill-rule="nonzero"/><path fill="#085049" d="M 189.878906 312.53125 L 178.03125 312.53125 C 175.628906 312.53125 173.707031 310.609375 173.707031 308.207031 L 173.707031 303.40625 C 170.027344 302.445312 166.664062 301.003906 163.460938 299.082031 L 160.257812 302.285156 C 158.65625 303.886719 155.933594 303.886719 154.171875 302.285156 L 145.847656 293.957031 C 144.246094 292.355469 144.246094 289.632812 145.847656 287.875 L 149.210938 284.511719 C 147.289062 281.308594 146.007812 277.785156 145.046875 274.101562 L 140.5625 274.101562 C 138.160156 274.101562 136.242188 272.179688 136.242188 269.78125 L 136.242188 258.25 C 136.242188 255.847656 138.160156 253.929688 140.5625 253.929688 L 145.367188 253.929688 C 146.328125 250.246094 147.769531 246.882812 149.691406 243.679688 L 146.488281 240.476562 C 145.6875 239.675781 145.207031 238.558594 145.207031 237.4375 C 145.207031 236.316406 145.6875 235.195312 146.488281 234.394531 L 154.8125 226.066406 C 156.414062 224.464844 159.136719 224.464844 160.898438 226.066406 L 164.261719 229.429688 C 167.464844 227.507812 170.984375 226.226562 174.667969 225.265625 L 174.667969 220.785156 C 174.667969 218.382812 176.589844 216.460938 178.992188 216.460938 L 190.839844 216.460938 C 193.242188 216.460938 195.164062 218.382812 195.164062 220.785156 L 195.164062 225.585938 C 198.847656 226.546875 202.210938 227.988281 205.410156 229.910156 L 208.613281 226.707031 C 210.214844 225.105469 212.9375 225.105469 214.699219 226.707031 L 223.023438 235.035156 C 223.824219 235.835938 224.304688 236.957031 224.304688 238.078125 C 224.304688 239.195312 223.824219 240.316406 223.023438 241.117188 L 219.664062 244.480469 C 221.582031 247.683594 222.863281 251.207031 223.824219 254.890625 L 228.308594 254.890625 C 230.710938 254.890625 232.632812 256.808594 232.632812 259.210938 L 232.632812 271.0625 C 232.632812 273.460938 230.710938 275.382812 228.308594 275.382812 L 223.503906 275.382812 C 222.542969 279.066406 221.101562 282.429688 219.183594 285.632812 L 222.382812 288.832031 C 223.183594 289.632812 223.664062 290.753906 223.664062 291.875 C 223.664062 292.996094 223.183594 294.117188 222.382812 294.917969 L 214.058594 303.246094 C 212.457031 304.847656 209.734375 304.847656 207.972656 303.246094 L 204.609375 299.882812 C 201.410156 301.804688 197.886719 303.085938 194.203125 304.046875 L 194.203125 308.527344 C 194.042969 310.609375 192.121094 312.53125 189.878906 312.53125 Z M 174.667969 302.125 L 175.308594 302.125 L 175.308594 308.367188 C 175.308594 309.808594 176.429688 311.089844 178.03125 311.089844 L 189.878906 311.089844 C 191.320312 311.089844 192.601562 309.96875 192.601562 308.367188 L 192.601562 302.445312 L 193.242188 302.445312 C 197.085938 301.644531 200.769531 300.042969 204.128906 298.121094 L 204.609375 297.640625 L 208.933594 301.964844 C 209.894531 302.925781 211.65625 302.925781 212.617188 301.964844 L 220.941406 293.636719 C 221.421875 293.15625 221.742188 292.515625 221.742188 291.714844 C 221.742188 290.914062 221.421875 290.273438 220.941406 289.792969 L 216.78125 285.632812 L 217.101562 285.152344 C 219.183594 281.789062 220.78125 278.105469 221.742188 274.261719 L 221.902344 273.621094 L 227.828125 273.621094 C 229.269531 273.621094 230.550781 272.5 230.550781 270.902344 L 230.550781 259.050781 C 230.550781 257.609375 229.429688 256.328125 227.828125 256.328125 L 222.0625 256.328125 L 221.902344 255.6875 C 221.101562 251.847656 219.503906 248.164062 217.421875 244.640625 L 217.101562 244.160156 L 221.421875 239.835938 C 221.902344 239.355469 222.222656 238.71875 222.222656 237.917969 C 222.222656 237.117188 221.902344 236.476562 221.421875 235.996094 L 213.097656 227.667969 C 212.136719 226.707031 210.375 226.707031 209.414062 227.667969 L 205.25 231.832031 L 204.769531 231.511719 C 201.410156 229.429688 197.726562 227.828125 193.882812 226.867188 L 193.242188 226.707031 L 193.242188 220.785156 C 193.242188 219.34375 192.121094 218.0625 190.519531 218.0625 L 178.671875 218.0625 C 177.230469 218.0625 175.949219 219.183594 175.949219 220.785156 L 175.949219 226.546875 L 175.308594 226.707031 C 171.464844 227.507812 167.785156 229.109375 164.261719 231.191406 L 163.78125 231.511719 L 159.617188 227.347656 C 158.65625 226.386719 156.894531 226.386719 155.933594 227.347656 L 147.609375 235.675781 C 147.128906 236.15625 146.808594 236.796875 146.808594 237.597656 C 146.808594 238.238281 147.128906 239.039062 147.609375 239.515625 L 151.773438 243.679688 L 151.453125 244.160156 C 149.371094 247.523438 147.769531 251.207031 146.808594 255.050781 L 146.648438 255.691406 L 140.5625 255.691406 C 139.121094 255.691406 137.839844 256.808594 137.839844 258.410156 L 137.839844 270.261719 C 137.839844 271.703125 138.960938 272.980469 140.5625 272.980469 L 146.328125 272.980469 L 146.488281 273.621094 C 147.289062 277.464844 148.890625 281.148438 150.972656 284.671875 L 151.292969 285.152344 L 146.96875 289.472656 C 146.007812 290.433594 146.007812 292.195312 146.96875 293.15625 L 155.292969 301.484375 C 156.253906 302.445312 158.015625 302.445312 158.976562 301.484375 L 163.140625 297.320312 L 163.621094 297.640625 C 167.144531 299.5625 170.824219 301.164062 174.667969 302.125 Z M 184.4375 287.394531 C 171.945312 287.394531 161.699219 277.144531 161.699219 264.65625 C 161.699219 252.167969 171.945312 241.917969 184.4375 241.917969 C 196.925781 241.917969 207.171875 252.167969 207.171875 264.65625 C 207.171875 277.144531 196.925781 287.394531 184.4375 287.394531 Z M 184.4375 243.519531 C 172.746094 243.519531 163.300781 252.96875 163.300781 264.65625 C 163.300781 276.34375 172.746094 285.792969 184.4375 285.792969 C 196.125 285.792969 205.570312 276.34375 205.570312 264.65625 C 205.570312 252.96875 195.964844 243.519531 184.4375 243.519531 Z M 184.4375 243.519531 " fill-opacity="1" fill-rule="nonzero"/><path fill="#ffffff" d="M 655.664062 189.558594 L 655.664062 615.796875 C 655.664062 628.765625 645.097656 639.332031 632.128906 639.332031 L 276.984375 639.332031 C 264.015625 639.332031 253.449219 628.765625 253.449219 615.796875 L 253.449219 189.558594 C 253.449219 176.589844 264.015625 166.023438 276.984375 166.023438 L 632.128906 166.023438 C 645.257812 166.023438 655.664062 176.589844 655.664062 189.558594 Z M 655.664062 189.558594 " fill-opacity="1" fill-rule="nonzero"/><path fill="#085049" d="M 632.128906 639.972656 L 276.984375 639.972656 C 263.535156 639.972656 252.648438 629.085938 252.648438 615.636719 L 252.648438 189.558594 C 252.648438 176.109375 263.535156 165.222656 276.984375 165.222656 L 632.128906 165.222656 C 645.578125 165.222656 656.464844 176.109375 656.464844 189.558594 L 656.464844 615.796875 C 656.464844 629.085938 645.578125 639.972656 632.128906 639.972656 Z M 276.984375 166.824219 C 264.496094 166.824219 254.246094 177.070312 254.246094 189.558594 L 254.246094 615.796875 C 254.246094 628.285156 264.496094 638.53125 276.984375 638.53125 L 632.128906 638.53125 C 644.617188 638.53125 654.863281 628.285156 654.863281 615.796875 L 654.863281 189.558594 C 654.863281 177.070312 644.617188 166.824219 632.128906 166.824219 Z M 276.984375 166.824219 " fill-opacity="1" fill-rule="nonzero"/><path fill="#085049" d="M 655.664062 189.558594 L 655.664062 210.535156 L 253.449219 210.535156 L 253.449219 189.558594 C 253.449219 176.589844 264.015625 166.023438 276.984375 166.023438 L 632.128906 166.023438 C 645.257812 166.023438 655.664062 176.589844 655.664062 189.558594 Z M 655.664062 189.558594 " fill-opacity="1" fill-rule="nonzero"/><path fill="#ffffff" d="M 283.871094 190.519531 C 283.871094 190.816406 283.839844 191.105469 283.785156 191.394531 C 283.726562 191.683594 283.640625 191.964844 283.527344 192.238281 C 283.414062 192.507812 283.277344 192.765625 283.113281 193.011719 C 282.949219 193.257812 282.765625 193.484375 282.558594 193.691406 C 282.347656 193.898438 282.121094 194.085938 281.878906 194.25 C 281.632812 194.414062 281.375 194.550781 281.101562 194.664062 C 280.832031 194.777344 280.550781 194.859375 280.261719 194.917969 C 279.972656 194.976562 279.679688 195.003906 279.386719 195.003906 C 279.09375 195.003906 278.800781 194.976562 278.511719 194.917969 C 278.222656 194.859375 277.941406 194.777344 277.671875 194.664062 C 277.398438 194.550781 277.140625 194.414062 276.894531 194.25 C 276.652344 194.085938 276.425781 193.898438 276.214844 193.691406 C 276.007812 193.484375 275.824219 193.257812 275.660156 193.011719 C 275.496094 192.765625 275.355469 192.507812 275.246094 192.238281 C 275.132812 191.964844 275.046875 191.683594 274.988281 191.394531 C 274.933594 191.105469 274.902344 190.816406 274.902344 190.519531 C 274.902344 190.226562 274.933594 189.933594 274.988281 189.644531 C 275.046875 189.359375 275.132812 189.078125 275.246094 188.804688 C 275.355469 188.535156 275.496094 188.273438 275.660156 188.03125 C 275.824219 187.785156 276.007812 187.558594 276.214844 187.351562 C 276.425781 187.144531 276.652344 186.957031 276.894531 186.792969 C 277.140625 186.628906 277.398438 186.492188 277.671875 186.378906 C 277.941406 186.265625 278.222656 186.179688 278.511719 186.125 C 278.800781 186.066406 279.09375 186.039062 279.386719 186.039062 C 279.679688 186.039062 279.972656 186.066406 280.261719 186.125 C 280.550781 186.179688 280.832031 186.265625 281.101562 186.378906 C 281.375 186.492188 281.632812 186.628906 281.878906 186.792969 C 282.121094 186.957031 282.347656 187.144531 282.558594 187.351562 C 282.765625 187.558594 282.949219 187.785156 283.113281 188.03125 C 283.277344 188.273438 283.414062 188.535156 283.527344 188.804688 C 283.640625 189.078125 283.726562 189.359375 283.785156 189.644531 C 283.839844 189.933594 283.871094 190.226562 283.871094 190.519531 Z M 283.871094 190.519531 " fill-opacity="1" fill-rule="nonzero"/><path fill="#ffffff" d="M 305.804688 190.519531 C 305.804688 190.816406 305.777344 191.105469 305.71875 191.394531 C 305.664062 191.683594 305.578125 191.964844 305.464844 192.238281 C 305.351562 192.507812 305.214844 192.765625 305.050781 193.011719 C 304.886719 193.257812 304.699219 193.484375 304.492188 193.691406 C 304.285156 193.898438 304.058594 194.085938 303.8125 194.25 C 303.570312 194.414062 303.308594 194.550781 303.039062 194.664062 C 302.765625 194.777344 302.484375 194.859375 302.199219 194.917969 C 301.910156 194.976562 301.617188 195.003906 301.324219 195.003906 C 301.027344 195.003906 300.738281 194.976562 300.449219 194.917969 C 300.160156 194.859375 299.878906 194.777344 299.605469 194.664062 C 299.335938 194.550781 299.078125 194.414062 298.832031 194.25 C 298.585938 194.085938 298.359375 193.898438 298.152344 193.691406 C 297.945312 193.484375 297.757812 193.257812 297.59375 193.011719 C 297.429688 192.765625 297.292969 192.507812 297.179688 192.238281 C 297.066406 191.964844 296.984375 191.683594 296.925781 191.394531 C 296.867188 191.105469 296.839844 190.816406 296.839844 190.519531 C 296.839844 190.226562 296.867188 189.933594 296.925781 189.644531 C 296.984375 189.359375 297.066406 189.078125 297.179688 188.804688 C 297.292969 188.535156 297.429688 188.273438 297.59375 188.03125 C 297.757812 187.785156 297.945312 187.558594 298.152344 187.351562 C 298.359375 187.144531 298.585938 186.957031 298.832031 186.792969 C 299.078125 186.628906 299.335938 186.492188 299.605469 186.378906 C 299.878906 186.265625 300.160156 186.179688 300.449219 186.125 C 300.738281 186.066406 301.027344 186.039062 301.324219 186.039062 C 301.617188 186.039062 301.910156 186.066406 302.199219 186.125 C 302.484375 186.179688 302.765625 186.265625 303.039062 186.378906 C 303.308594 186.492188 303.570312 186.628906 303.8125 186.792969 C 304.058594 186.957031 304.285156 187.144531 304.492188 187.351562 C 304.699219 187.558594 304.886719 187.785156 305.050781 188.03125 C 305.214844 188.273438 305.351562 188.535156 305.464844 188.804688 C 305.578125 189.078125 305.664062 189.359375 305.71875 189.644531 C 305.777344 189.933594 305.804688 190.226562 305.804688 190.519531 Z M 305.804688 190.519531 " fill-opacity="1" fill-rule="nonzero"/><path fill="#ffffff" d="M 327.742188 190.519531 C 327.742188 190.816406 327.714844 191.105469 327.65625 191.394531 C 327.597656 191.683594 327.511719 191.964844 327.402344 192.238281 C 327.289062 192.507812 327.148438 192.765625 326.988281 193.011719 C 326.824219 193.257812 326.636719 193.484375 326.429688 193.691406 C 326.222656 193.898438 325.996094 194.085938 325.75 194.25 C 325.503906 194.414062 325.246094 194.550781 324.976562 194.664062 C 324.703125 194.777344 324.421875 194.859375 324.132812 194.917969 C 323.84375 194.976562 323.554688 195.003906 323.257812 195.003906 C 322.964844 195.003906 322.671875 194.976562 322.382812 194.917969 C 322.09375 194.859375 321.816406 194.777344 321.542969 194.664062 C 321.269531 194.550781 321.011719 194.414062 320.769531 194.25 C 320.523438 194.085938 320.296875 193.898438 320.089844 193.691406 C 319.878906 193.484375 319.695312 193.257812 319.53125 193.011719 C 319.367188 192.765625 319.230469 192.507812 319.117188 192.238281 C 319.003906 191.964844 318.917969 191.683594 318.863281 191.394531 C 318.804688 191.105469 318.777344 190.816406 318.777344 190.519531 C 318.777344 190.226562 318.804688 189.933594 318.863281 189.644531 C 318.917969 189.359375 319.003906 189.078125 319.117188 188.804688 C 319.230469 188.535156 319.367188 188.273438 319.53125 188.03125 C 319.695312 187.785156 319.878906 187.558594 320.089844 187.351562 C 320.296875 187.144531 320.523438 186.957031 320.769531 186.792969 C 321.011719 186.628906 321.269531 186.492188 321.542969 186.378906 C 321.816406 186.265625 322.09375 186.179688 322.382812 186.125 C 322.671875 186.066406 322.964844 186.039062 323.257812 186.039062 C 323.554688 186.039062 323.84375 186.066406 324.132812 186.125 C 324.421875 186.179688 324.703125 186.265625 324.976562 186.378906 C 325.246094 186.492188 325.503906 186.628906 325.75 186.792969 C 325.996094 186.957031 326.222656 187.144531 326.429688 187.351562 C 326.636719 187.558594 326.824219 187.785156 326.988281 188.03125 C 327.148438 188.273438 327.289062 188.535156 327.402344 188.804688 C 327.511719 189.078125 327.597656 189.359375 327.65625 189.644531 C 327.714844 189.933594 327.742188 190.226562 327.742188 190.519531 Z M 327.742188 190.519531 " fill-opacity="1" fill-rule="nonzero"/><path fill="#dcf6b1" d="M 404.917969 291.875 C 404.917969 304.6875 400.597656 316.695312 393.390625 326.140625 C 393.230469 326.460938 393.070312 326.621094 392.75 326.941406 C 392.429688 327.261719 392.109375 327.742188 391.789062 328.0625 C 390.1875 329.984375 388.585938 331.90625 386.664062 333.507812 C 385.066406 334.949219 383.304688 336.390625 381.542969 337.671875 C 380.582031 338.3125 379.621094 339.109375 378.660156 339.589844 C 378.339844 339.75 378.179688 339.910156 377.859375 340.070312 C 377.058594 340.550781 376.417969 341.03125 375.617188 341.351562 C 375.617188 341.351562 375.457031 341.511719 375.457031 341.511719 C 374.816406 341.832031 374.335938 342.152344 373.695312 342.472656 C 370.652344 344.074219 367.453125 345.355469 364.089844 346.316406 C 362.808594 346.636719 361.527344 346.957031 360.246094 347.277344 C 359.125 347.4375 358.003906 347.757812 356.882812 347.917969 C 354.480469 348.238281 351.921875 348.558594 349.359375 348.71875 C 348.71875 348.71875 348.078125 348.71875 347.4375 348.71875 C 346.796875 348.71875 345.996094 348.71875 345.355469 348.71875 C 344.234375 348.71875 343.113281 348.558594 341.992188 348.558594 C 336.390625 348.078125 330.945312 346.636719 325.980469 344.714844 C 325.820312 344.714844 325.660156 344.554688 325.5 344.554688 C 325.339844 344.554688 325.339844 344.554688 325.179688 344.394531 C 325.179688 344.394531 325.019531 344.394531 325.019531 344.394531 C 321.65625 342.953125 318.617188 341.351562 315.574219 339.429688 C 314.292969 338.628906 313.011719 337.671875 311.890625 336.710938 C 311.410156 336.390625 310.929688 335.910156 310.449219 335.589844 C 310.289062 335.429688 310.128906 335.269531 309.96875 335.109375 C 297.640625 324.539062 289.953125 309.007812 289.953125 291.714844 C 289.953125 260.171875 315.574219 234.554688 347.117188 234.554688 C 379.300781 234.714844 404.917969 260.332031 404.917969 291.875 Z M 404.917969 291.875 " fill-opacity="1" fill-rule="nonzero"/><path fill="#efc237" d="M 358.964844 296.519531 L 358.804688 297.800781 L 358.644531 299.5625 L 358.003906 307.085938 L 352.5625 306.765625 L 342.472656 305.644531 L 343.433594 293.957031 Z M 358.964844 296.519531 " fill-opacity="1" fill-rule="nonzero"/><path fill="#efc237" d="M 336.390625 277.464844 C 336.390625 277.464844 337.988281 298.761719 352.5625 299.242188 C 367.132812 299.882812 367.292969 276.023438 366.652344 269.78125 C 366.011719 263.535156 357.363281 260.8125 348.078125 261.773438 C 338.789062 262.734375 336.390625 277.464844 336.390625 277.464844 Z M 336.390625 277.464844 " fill-opacity="1" fill-rule="nonzero"/><path fill="#efc237" d="M 358.804688 297.800781 L 358.644531 299.722656 C 350.800781 304.046875 345.355469 297.160156 345.195312 296.839844 C 345.835938 297.320312 346.636719 297.800781 347.4375 298.28125 C 348.878906 298.921875 350.640625 299.402344 352.722656 299.5625 C 354.640625 299.722656 356.402344 299.242188 358.003906 298.601562 C 358.164062 298.121094 358.484375 297.960938 358.804688 297.800781 Z M 358.804688 297.800781 " fill-opacity="1" fill-rule="nonzero"/><path fill="#efc237" d="M 365.691406 279.226562 C 365.691406 279.226562 368.894531 278.90625 368.574219 283.070312 C 368.253906 287.234375 363.609375 288.355469 363.609375 288.355469 Z M 365.691406 279.226562 " fill-opacity="1" fill-rule="nonzero"/><path fill="#efc237" d="M 336.867188 279.226562 C 336.867188 279.226562 333.667969 278.746094 333.667969 282.75 C 333.667969 286.914062 339.269531 288.355469 339.269531 288.355469 Z M 336.867188 279.226562 " fill-opacity="1" fill-rule="nonzero"/><path fill="#085049" d="M 336.390625 279.226562 C 336.390625 279.226562 335.429688 276.664062 335.75 269.300781 C 335.910156 261.773438 339.589844 258.570312 343.433594 258.730469 C 343.433594 258.730469 353.359375 250.886719 362.167969 256.328125 C 370.972656 261.773438 366.011719 283.070312 366.011719 283.070312 C 366.011719 283.070312 366.011719 267.058594 363.449219 266.738281 C 360.886719 266.417969 361.847656 270.582031 354.160156 268.660156 C 346.476562 266.738281 344.554688 265.777344 342.953125 266.898438 C 341.351562 268.019531 342.953125 278.585938 340.070312 284.351562 C 340.070312 284.191406 338.789062 279.386719 336.390625 279.226562 Z M 336.390625 279.226562 " fill-opacity="1" fill-rule="nonzero"/><path fill="#085049" d="M 345.515625 261.773438 C 345.515625 262.046875 345.488281 262.316406 345.433594 262.585938 C 345.382812 262.855469 345.304688 263.113281 345.199219 263.367188 C 345.09375 263.621094 344.964844 263.859375 344.8125 264.085938 C 344.660156 264.3125 344.488281 264.523438 344.296875 264.71875 C 344.101562 264.910156 343.890625 265.082031 343.664062 265.234375 C 343.4375 265.386719 343.199219 265.515625 342.945312 265.621094 C 342.691406 265.726562 342.433594 265.804688 342.164062 265.855469 C 341.894531 265.910156 341.625 265.9375 341.351562 265.9375 C 341.078125 265.9375 340.808594 265.910156 340.539062 265.855469 C 340.273438 265.804688 340.011719 265.726562 339.757812 265.621094 C 339.507812 265.515625 339.265625 265.386719 339.039062 265.234375 C 338.8125 265.082031 338.601562 264.910156 338.410156 264.71875 C 338.214844 264.523438 338.042969 264.3125 337.890625 264.085938 C 337.738281 263.859375 337.609375 263.621094 337.507812 263.367188 C 337.402344 263.113281 337.324219 262.855469 337.269531 262.585938 C 337.214844 262.316406 337.1875 262.046875 337.1875 261.773438 C 337.1875 261.5 337.214844 261.230469 337.269531 260.960938 C 337.324219 260.695312 337.402344 260.433594 337.507812 260.179688 C 337.609375 259.929688 337.738281 259.6875 337.890625 259.460938 C 338.042969 259.234375 338.214844 259.023438 338.410156 258.832031 C 338.601562 258.636719 338.8125 258.464844 339.039062 258.3125 C 339.265625 258.160156 339.507812 258.03125 339.757812 257.925781 C 340.011719 257.824219 340.273438 257.742188 340.539062 257.691406 C 340.808594 257.636719 341.078125 257.609375 341.351562 257.609375 C 341.625 257.609375 341.894531 257.636719 342.164062 257.691406 C 342.433594 257.742188 342.691406 257.824219 342.945312 257.925781 C 343.199219 258.03125 343.4375 258.160156 343.664062 258.3125 C 343.890625 258.464844 344.101562 258.636719 344.296875 258.832031 C 344.488281 259.023438 344.660156 259.234375 344.8125 259.460938 C 344.964844 259.6875 345.09375 259.929688 345.199219 260.179688 C 345.304688 260.433594 345.382812 260.695312 345.433594 260.960938 C 345.488281 261.230469 345.515625 261.5 345.515625 261.773438 Z M 345.515625 261.773438 " fill-opacity="1" fill-rule="nonzero"/><path fill="#085049" d="M 368.734375 266.738281 C 368.734375 267.203125 368.683594 267.652344 368.585938 268.085938 C 368.488281 268.515625 368.351562 268.898438 368.167969 269.226562 C 367.988281 269.558594 367.78125 269.8125 367.546875 269.992188 C 367.3125 270.171875 367.066406 270.261719 366.8125 270.261719 C 366.554688 270.261719 366.3125 270.171875 366.074219 269.992188 C 365.839844 269.8125 365.632812 269.558594 365.453125 269.226562 C 365.273438 268.898438 365.132812 268.515625 365.035156 268.085938 C 364.9375 267.652344 364.890625 267.203125 364.890625 266.738281 C 364.890625 266.269531 364.9375 265.820312 365.035156 265.390625 C 365.132812 264.957031 365.273438 264.578125 365.453125 264.246094 C 365.632812 263.917969 365.839844 263.660156 366.074219 263.484375 C 366.3125 263.304688 366.554688 263.214844 366.8125 263.214844 C 367.066406 263.214844 367.3125 263.304688 367.546875 263.484375 C 367.78125 263.660156 367.988281 263.917969 368.167969 264.246094 C 368.351562 264.578125 368.488281 264.957031 368.585938 265.390625 C 368.683594 265.820312 368.734375 266.269531 368.734375 266.738281 Z M 368.734375 266.738281 " fill-opacity="1" fill-rule="nonzero"/><path fill="#085049" d="M 358.804688 256.648438 C 358.804688 256.921875 358.777344 257.195312 358.726562 257.460938 C 358.671875 257.730469 358.59375 257.992188 358.488281 258.242188 C 358.382812 258.496094 358.253906 258.734375 358.105469 258.964844 C 357.953125 259.191406 357.777344 259.402344 357.585938 259.59375 C 357.394531 259.785156 357.183594 259.960938 356.957031 260.113281 C 356.726562 260.261719 356.488281 260.390625 356.234375 260.496094 C 355.984375 260.601562 355.722656 260.679688 355.453125 260.734375 C 355.1875 260.785156 354.914062 260.8125 354.640625 260.8125 C 354.367188 260.8125 354.097656 260.785156 353.828125 260.734375 C 353.5625 260.679688 353.300781 260.601562 353.050781 260.496094 C 352.796875 260.390625 352.554688 260.261719 352.328125 260.113281 C 352.101562 259.960938 351.890625 259.785156 351.699219 259.59375 C 351.503906 259.402344 351.332031 259.191406 351.179688 258.964844 C 351.027344 258.734375 350.902344 258.496094 350.796875 258.242188 C 350.691406 257.992188 350.613281 257.730469 350.558594 257.460938 C 350.503906 257.195312 350.480469 256.921875 350.480469 256.648438 C 350.480469 256.375 350.503906 256.105469 350.558594 255.835938 C 350.613281 255.570312 350.691406 255.308594 350.796875 255.058594 C 350.902344 254.804688 351.027344 254.566406 351.179688 254.335938 C 351.332031 254.109375 351.503906 253.898438 351.699219 253.707031 C 351.890625 253.511719 352.101562 253.339844 352.328125 253.1875 C 352.554688 253.035156 352.796875 252.910156 353.050781 252.804688 C 353.300781 252.699219 353.5625 252.621094 353.828125 252.566406 C 354.097656 252.515625 354.367188 252.488281 354.640625 252.488281 C 354.914062 252.488281 355.1875 252.515625 355.453125 252.566406 C 355.722656 252.621094 355.984375 252.699219 356.234375 252.804688 C 356.488281 252.910156 356.726562 253.035156 356.953125 253.1875 C 357.183594 253.339844 357.394531 253.511719 357.585938 253.707031 C 357.777344 253.898438 357.953125 254.109375 358.105469 254.335938 C 358.253906 254.566406 358.382812 254.804688 358.488281 255.058594 C 358.59375 255.308594 358.671875 255.570312 358.726562 255.835938 C 358.777344 256.105469 358.804688 256.375 358.804688 256.648438 Z M 358.804688 256.648438 " fill-opacity="1" fill-rule="nonzero"/><path fill="#085049" d="M 364.730469 258.570312 C 364.730469 258.84375 364.703125 259.117188 364.648438 259.382812 C 364.597656 259.652344 364.515625 259.910156 364.414062 260.164062 C 364.308594 260.417969 364.179688 260.65625 364.027344 260.882812 C 363.875 261.113281 363.703125 261.320312 363.511719 261.515625 C 363.316406 261.707031 363.105469 261.882812 362.878906 262.03125 C 362.652344 262.183594 362.414062 262.3125 362.160156 262.417969 C 361.90625 262.523438 361.648438 262.601562 361.378906 262.65625 C 361.109375 262.707031 360.839844 262.734375 360.566406 262.734375 C 360.292969 262.734375 360.023438 262.707031 359.753906 262.65625 C 359.484375 262.601562 359.226562 262.523438 358.972656 262.417969 C 358.722656 262.3125 358.480469 262.183594 358.253906 262.03125 C 358.027344 261.882812 357.816406 261.707031 357.621094 261.515625 C 357.429688 261.320312 357.257812 261.113281 357.105469 260.882812 C 356.953125 260.65625 356.824219 260.417969 356.71875 260.164062 C 356.617188 259.910156 356.535156 259.652344 356.484375 259.382812 C 356.429688 259.117188 356.402344 258.84375 356.402344 258.570312 C 356.402344 258.296875 356.429688 258.027344 356.484375 257.757812 C 356.535156 257.492188 356.617188 257.230469 356.71875 256.976562 C 356.824219 256.726562 356.953125 256.484375 357.105469 256.257812 C 357.257812 256.03125 357.429688 255.820312 357.621094 255.628906 C 357.816406 255.433594 358.027344 255.261719 358.253906 255.109375 C 358.480469 254.957031 358.722656 254.828125 358.972656 254.726562 C 359.226562 254.621094 359.484375 254.542969 359.753906 254.488281 C 360.023438 254.433594 360.292969 254.410156 360.566406 254.410156 C 360.839844 254.410156 361.109375 254.433594 361.378906 254.488281 C 361.648438 254.542969 361.90625 254.621094 362.160156 254.726562 C 362.414062 254.828125 362.652344 254.957031 362.878906 255.109375 C 363.105469 255.261719 363.316406 255.433594 363.511719 255.628906 C 363.703125 255.820312 363.875 256.03125 364.027344 256.257812 C 364.179688 256.484375 364.308594 256.726562 364.414062 256.976562 C 364.515625 257.230469 364.597656 257.492188 364.648438 257.757812 C 364.703125 258.027344 364.730469 258.296875 364.730469 258.570312 Z M 364.730469 258.570312 " fill-opacity="1" fill-rule="nonzero"/><path fill="#085049" d="M 368.09375 261.292969 C 368.09375 261.71875 368.011719 262.125 367.847656 262.519531 C 367.6875 262.910156 367.453125 263.257812 367.152344 263.558594 C 366.855469 263.859375 366.507812 264.089844 366.117188 264.253906 C 365.722656 264.414062 365.316406 264.496094 364.890625 264.496094 C 364.464844 264.496094 364.058594 264.414062 363.664062 264.253906 C 363.273438 264.089844 362.925781 263.859375 362.625 263.558594 C 362.324219 263.257812 362.09375 262.910156 361.929688 262.519531 C 361.769531 262.125 361.6875 261.71875 361.6875 261.292969 C 361.6875 260.867188 361.769531 260.460938 361.929688 260.066406 C 362.09375 259.675781 362.324219 259.328125 362.625 259.027344 C 362.925781 258.730469 363.273438 258.496094 363.664062 258.335938 C 364.054688 258.171875 364.464844 258.089844 364.890625 258.089844 C 365.316406 258.089844 365.722656 258.171875 366.117188 258.335938 C 366.507812 258.496094 366.855469 258.730469 367.152344 259.027344 C 367.453125 259.328125 367.6875 259.675781 367.847656 260.066406 C 368.011719 260.460938 368.09375 260.867188 368.09375 261.292969 Z M 368.09375 261.292969 " fill-opacity="1" fill-rule="nonzero"/><path fill="#085049" d="M 354.800781 265.9375 C 354.800781 266.363281 354.722656 266.769531 354.558594 267.164062 C 354.394531 267.554688 354.164062 267.902344 353.863281 268.203125 C 353.5625 268.5 353.21875 268.734375 352.824219 268.894531 C 352.433594 269.058594 352.023438 269.140625 351.601562 269.140625 C 351.175781 269.140625 350.765625 269.058594 350.375 268.894531 C 349.980469 268.734375 349.636719 268.5 349.335938 268.203125 C 349.035156 267.902344 348.804688 267.554688 348.640625 267.164062 C 348.480469 266.769531 348.398438 266.363281 348.398438 265.9375 C 348.398438 265.511719 348.480469 265.105469 348.640625 264.710938 C 348.804688 264.320312 349.035156 263.972656 349.335938 263.671875 C 349.636719 263.371094 349.980469 263.140625 350.375 262.976562 C 350.765625 262.816406 351.175781 262.734375 351.601562 262.734375 C 352.023438 262.734375 352.433594 262.816406 352.824219 262.976562 C 353.21875 263.140625 353.5625 263.371094 353.863281 263.671875 C 354.164062 263.972656 354.394531 264.320312 354.558594 264.710938 C 354.722656 265.105469 354.800781 265.511719 354.800781 265.9375 Z M 354.800781 265.9375 " fill-opacity="1" fill-rule="nonzero"/><path fill="#085049" d="M 354.480469 258.410156 C 354.480469 258.683594 354.445312 258.957031 354.375 259.222656 C 354.300781 259.492188 354.195312 259.753906 354.054688 260.003906 C 353.914062 260.257812 353.742188 260.496094 353.539062 260.722656 C 353.332031 260.953125 353.101562 261.160156 352.839844 261.355469 C 352.582031 261.546875 352.296875 261.722656 351.992188 261.871094 C 351.683594 262.023438 351.363281 262.152344 351.023438 262.257812 C 350.683594 262.363281 350.332031 262.441406 349.972656 262.496094 C 349.609375 262.546875 349.246094 262.574219 348.878906 262.574219 C 348.511719 262.574219 348.144531 262.546875 347.785156 262.496094 C 347.421875 262.441406 347.074219 262.363281 346.734375 262.257812 C 346.394531 262.152344 346.070312 262.023438 345.765625 261.871094 C 345.457031 261.722656 345.175781 261.546875 344.914062 261.355469 C 344.65625 261.160156 344.421875 260.953125 344.21875 260.722656 C 344.015625 260.496094 343.839844 260.257812 343.699219 260.003906 C 343.558594 259.753906 343.453125 259.492188 343.382812 259.222656 C 343.308594 258.957031 343.273438 258.683594 343.273438 258.410156 C 343.273438 258.136719 343.308594 257.867188 343.382812 257.597656 C 343.453125 257.332031 343.558594 257.070312 343.699219 256.816406 C 343.839844 256.566406 344.015625 256.324219 344.21875 256.097656 C 344.421875 255.871094 344.65625 255.660156 344.914062 255.46875 C 345.175781 255.273438 345.457031 255.101562 345.765625 254.949219 C 346.070312 254.796875 346.394531 254.667969 346.734375 254.566406 C 347.074219 254.460938 347.421875 254.382812 347.785156 254.328125 C 348.144531 254.273438 348.511719 254.25 348.878906 254.25 C 349.246094 254.25 349.609375 254.273438 349.972656 254.328125 C 350.332031 254.382812 350.683594 254.460938 351.023438 254.566406 C 351.363281 254.667969 351.683594 254.796875 351.992188 254.949219 C 352.296875 255.101562 352.582031 255.273438 352.839844 255.46875 C 353.101562 255.660156 353.332031 255.871094 353.539062 256.097656 C 353.742188 256.324219 353.914062 256.566406 354.054688 256.816406 C 354.195312 257.070312 354.300781 257.332031 354.375 257.597656 C 354.445312 257.867188 354.480469 258.136719 354.480469 258.410156 Z M 354.480469 258.410156 " fill-opacity="1" fill-rule="nonzero"/><path fill="#085049" d="M 339.429688 273.941406 C 339.429688 274.304688 339.363281 274.652344 339.222656 274.984375 C 339.085938 275.316406 338.890625 275.613281 338.632812 275.867188 C 338.378906 276.121094 338.085938 276.320312 337.75 276.457031 C 337.417969 276.597656 337.070312 276.664062 336.707031 276.664062 C 336.347656 276.664062 336 276.597656 335.667969 276.457031 C 335.332031 276.320312 335.039062 276.121094 334.785156 275.867188 C 334.527344 275.613281 334.332031 275.316406 334.195312 274.984375 C 334.054688 274.652344 333.988281 274.304688 333.988281 273.941406 C 333.988281 273.582031 334.054688 273.234375 334.195312 272.902344 C 334.332031 272.566406 334.527344 272.273438 334.785156 272.019531 C 335.039062 271.761719 335.332031 271.566406 335.667969 271.429688 C 336 271.289062 336.347656 271.222656 336.707031 271.222656 C 337.070312 271.222656 337.417969 271.289062 337.75 271.429688 C 338.085938 271.566406 338.378906 271.761719 338.632812 272.019531 C 338.890625 272.273438 339.085938 272.566406 339.222656 272.902344 C 339.363281 273.234375 339.429688 273.582031 339.429688 273.941406 Z M 339.429688 273.941406 " fill-opacity="1" fill-rule="nonzero"/><path fill="#085049" d="M 343.753906 269.460938 C 343.753906 269.820312 343.683594 270.167969 343.546875 270.5 C 343.410156 270.835938 343.210938 271.128906 342.957031 271.382812 C 342.703125 271.640625 342.40625 271.835938 342.074219 271.972656 C 341.742188 272.113281 341.394531 272.179688 341.03125 272.179688 C 340.671875 272.179688 340.324219 272.113281 339.992188 271.972656 C 339.65625 271.835938 339.363281 271.640625 339.105469 271.382812 C 338.851562 271.128906 338.65625 270.835938 338.515625 270.5 C 338.378906 270.167969 338.308594 269.820312 338.308594 269.460938 C 338.308594 269.097656 338.378906 268.75 338.515625 268.417969 C 338.65625 268.085938 338.851562 267.789062 339.105469 267.535156 C 339.363281 267.28125 339.65625 267.082031 339.992188 266.945312 C 340.324219 266.804688 340.671875 266.738281 341.03125 266.738281 C 341.394531 266.738281 341.742188 266.808594 342.074219 266.945312 C 342.40625 267.082031 342.703125 267.28125 342.957031 267.535156 C 343.210938 267.789062 343.410156 268.085938 343.546875 268.417969 C 343.683594 268.75 343.753906 269.097656 343.753906 269.460938 Z M 343.753906 269.460938 " fill-opacity="1" fill-rule="nonzero"/><path fill="#085049" d="M 342.953125 273.460938 C 342.953125 273.675781 342.914062 273.878906 342.832031 274.074219 C 342.75 274.269531 342.632812 274.445312 342.484375 274.59375 C 342.335938 274.746094 342.160156 274.859375 341.964844 274.941406 C 341.769531 275.023438 341.566406 275.0625 341.351562 275.0625 C 341.140625 275.0625 340.9375 275.023438 340.738281 274.941406 C 340.542969 274.859375 340.371094 274.746094 340.21875 274.59375 C 340.070312 274.445312 339.953125 274.269531 339.875 274.074219 C 339.792969 273.878906 339.75 273.675781 339.75 273.460938 C 339.75 273.25 339.792969 273.046875 339.875 272.851562 C 339.953125 272.652344 340.070312 272.480469 340.21875 272.332031 C 340.371094 272.179688 340.542969 272.066406 340.738281 271.984375 C 340.9375 271.902344 341.140625 271.863281 341.351562 271.863281 C 341.566406 271.863281 341.769531 271.902344 341.964844 271.984375 C 342.160156 272.066406 342.335938 272.179688 342.484375 272.332031 C 342.632812 272.480469 342.75 272.652344 342.832031 272.851562 C 342.914062 273.046875 342.953125 273.25 342.953125 273.460938 Z M 342.953125 273.460938 " fill-opacity="1" fill-rule="nonzero"/><path fill="#085049" d="M 359.285156 267.378906 C 359.285156 267.78125 359.207031 268.167969 359.054688 268.542969 C 358.898438 268.914062 358.679688 269.242188 358.394531 269.527344 C 358.109375 269.816406 357.78125 270.035156 357.40625 270.1875 C 357.035156 270.34375 356.648438 270.421875 356.242188 270.421875 C 355.839844 270.421875 355.453125 270.34375 355.078125 270.1875 C 354.707031 270.035156 354.378906 269.816406 354.09375 269.527344 C 353.808594 269.242188 353.585938 268.914062 353.433594 268.542969 C 353.277344 268.167969 353.199219 267.78125 353.203125 267.378906 C 353.199219 266.976562 353.277344 266.585938 353.433594 266.214844 C 353.585938 265.839844 353.808594 265.511719 354.09375 265.226562 C 354.378906 264.941406 354.707031 264.722656 355.078125 264.566406 C 355.453125 264.414062 355.839844 264.335938 356.242188 264.335938 C 356.648438 264.335938 357.035156 264.414062 357.40625 264.566406 C 357.78125 264.722656 358.109375 264.941406 358.394531 265.226562 C 358.679688 265.511719 358.898438 265.839844 359.054688 266.214844 C 359.207031 266.585938 359.285156 266.976562 359.285156 267.378906 Z M 359.285156 267.378906 " fill-opacity="1" fill-rule="nonzero"/><path fill="#085049" d="M 367.292969 266.578125 C 367.292969 266.894531 367.230469 267.203125 367.109375 267.496094 C 366.988281 267.789062 366.8125 268.050781 366.589844 268.277344 C 366.363281 268.5 366.101562 268.675781 365.808594 268.796875 C 365.515625 268.917969 365.207031 268.980469 364.890625 268.980469 C 364.570312 268.980469 364.265625 268.917969 363.96875 268.796875 C 363.675781 268.675781 363.417969 268.5 363.191406 268.277344 C 362.964844 268.050781 362.792969 267.789062 362.671875 267.496094 C 362.550781 267.203125 362.488281 266.894531 362.488281 266.578125 C 362.488281 266.257812 362.550781 265.953125 362.671875 265.660156 C 362.792969 265.363281 362.964844 265.105469 363.191406 264.878906 C 363.417969 264.652344 363.675781 264.480469 363.96875 264.359375 C 364.265625 264.238281 364.570312 264.175781 364.890625 264.175781 C 365.207031 264.175781 365.515625 264.238281 365.808594 264.359375 C 366.101562 264.480469 366.363281 264.652344 366.589844 264.878906 C 366.8125 265.105469 366.988281 265.363281 367.109375 265.660156 C 367.230469 265.953125 367.292969 266.257812 367.292969 266.578125 Z M 367.292969 266.578125 " fill-opacity="1" fill-rule="nonzero"/><path fill="#085049" d="M 338.855469 261.734375 C 339.085938 261.777344 339.304688 261.855469 339.511719 261.96875 C 339.722656 262.085938 339.917969 262.230469 340.101562 262.414062 C 340.285156 262.59375 340.453125 262.804688 340.605469 263.046875 C 340.753906 263.289062 340.886719 263.558594 341 263.851562 C 341.109375 264.144531 341.199219 264.457031 341.269531 264.789062 C 341.339844 265.121094 341.382812 265.46875 341.40625 265.828125 C 341.429688 266.1875 341.429688 266.554688 341.40625 266.929688 C 341.382812 267.300781 341.339844 267.675781 341.269531 268.046875 C 341.199219 268.417969 341.109375 268.78125 340.996094 269.140625 C 340.886719 269.496094 340.753906 269.839844 340.601562 270.167969 C 340.453125 270.492188 340.285156 270.800781 340.101562 271.085938 C 339.917969 271.371094 339.722656 271.632812 339.511719 271.867188 C 339.300781 272.097656 339.082031 272.300781 338.855469 272.472656 C 338.628906 272.644531 338.394531 272.78125 338.160156 272.886719 C 337.921875 272.988281 337.6875 273.054688 337.449219 273.085938 C 337.214844 273.117188 336.980469 273.113281 336.753906 273.070312 C 336.527344 273.027344 336.308594 272.949219 336.097656 272.835938 C 335.890625 272.722656 335.691406 272.574219 335.507812 272.394531 C 335.324219 272.210938 335.15625 272 335.007812 271.757812 C 334.855469 271.515625 334.726562 271.25 334.613281 270.957031 C 334.5 270.664062 334.410156 270.351562 334.339844 270.019531 C 334.273438 269.683594 334.226562 269.339844 334.203125 268.980469 C 334.179688 268.617188 334.179688 268.253906 334.203125 267.878906 C 334.226562 267.503906 334.273438 267.132812 334.34375 266.761719 C 334.410156 266.390625 334.5 266.023438 334.613281 265.667969 C 334.726562 265.3125 334.855469 264.96875 335.007812 264.640625 C 335.160156 264.3125 335.328125 264.007812 335.511719 263.71875 C 335.695312 263.433594 335.890625 263.175781 336.101562 262.941406 C 336.308594 262.707031 336.527344 262.503906 336.753906 262.335938 C 336.984375 262.164062 337.214844 262.023438 337.453125 261.921875 C 337.6875 261.816406 337.925781 261.75 338.160156 261.71875 C 338.398438 261.6875 338.628906 261.695312 338.855469 261.734375 Z M 338.855469 261.734375 " fill-opacity="1" fill-rule="nonzero"/><path fill="#085049" d="M 350.640625 265.777344 C 350.640625 266.136719 350.527344 266.484375 350.296875 266.820312 C 350.070312 267.152344 349.746094 267.445312 349.324219 267.703125 C 348.90625 267.957031 348.421875 268.152344 347.871094 268.292969 C 347.324219 268.429688 346.75 268.5 346.15625 268.5 C 345.5625 268.5 344.988281 268.429688 344.441406 268.292969 C 343.890625 268.152344 343.40625 267.957031 342.984375 267.703125 C 342.566406 267.445312 342.242188 267.152344 342.015625 266.820312 C 341.785156 266.484375 341.671875 266.136719 341.671875 265.777344 C 341.671875 265.414062 341.785156 265.070312 342.015625 264.734375 C 342.242188 264.402344 342.566406 264.105469 342.984375 263.851562 C 343.40625 263.597656 343.890625 263.398438 344.441406 263.261719 C 344.988281 263.125 345.5625 263.054688 346.15625 263.054688 C 346.75 263.054688 347.324219 263.125 347.871094 263.261719 C 348.421875 263.398438 348.90625 263.597656 349.324219 263.851562 C 349.746094 264.105469 350.070312 264.402344 350.296875 264.734375 C 350.527344 265.070312 350.640625 265.414062 350.640625 265.777344 Z M 350.640625 265.777344 " fill-opacity="1" fill-rule="nonzero"/><path fill="#085049" d="M 361.515625 279.839844 C 361.664062 279.847656 361.804688 279.90625 361.9375 280.015625 C 362.070312 280.128906 362.183594 280.28125 362.28125 280.480469 C 362.378906 280.679688 362.453125 280.910156 362.5 281.164062 C 362.546875 281.421875 362.5625 281.6875 362.554688 281.964844 C 362.542969 282.242188 362.503906 282.503906 362.4375 282.757812 C 362.371094 283.011719 362.28125 283.230469 362.167969 283.421875 C 362.054688 283.613281 361.929688 283.761719 361.789062 283.859375 C 361.648438 283.960938 361.5 284.007812 361.351562 284 C 361.203125 283.996094 361.0625 283.9375 360.929688 283.828125 C 360.796875 283.714844 360.683594 283.5625 360.585938 283.363281 C 360.488281 283.164062 360.414062 282.933594 360.367188 282.679688 C 360.320312 282.421875 360.304688 282.152344 360.3125 281.878906 C 360.324219 281.601562 360.363281 281.339844 360.429688 281.085938 C 360.496094 280.832031 360.585938 280.609375 360.699219 280.421875 C 360.8125 280.230469 360.9375 280.082031 361.078125 279.984375 C 361.222656 279.882812 361.367188 279.835938 361.515625 279.839844 Z M 361.515625 279.839844 " fill-opacity="1" fill-rule="nonzero"/><path fill="#085049" d="M 347.25 279.207031 C 347.398438 279.210938 347.539062 279.269531 347.671875 279.382812 C 347.804688 279.492188 347.921875 279.648438 348.019531 279.847656 C 348.113281 280.046875 348.1875 280.273438 348.234375 280.53125 C 348.28125 280.789062 348.300781 281.054688 348.289062 281.328125 C 348.277344 281.605469 348.238281 281.871094 348.171875 282.121094 C 348.105469 282.375 348.015625 282.597656 347.902344 282.789062 C 347.792969 282.980469 347.664062 283.125 347.523438 283.226562 C 347.382812 283.324219 347.238281 283.371094 347.089844 283.367188 C 346.941406 283.359375 346.800781 283.300781 346.664062 283.191406 C 346.53125 283.082031 346.417969 282.925781 346.320312 282.726562 C 346.222656 282.527344 346.148438 282.300781 346.101562 282.042969 C 346.054688 281.785156 346.039062 281.519531 346.046875 281.242188 C 346.058594 280.96875 346.097656 280.703125 346.164062 280.449219 C 346.230469 280.199219 346.320312 279.976562 346.433594 279.785156 C 346.546875 279.59375 346.671875 279.449219 346.816406 279.347656 C 346.957031 279.246094 347.101562 279.199219 347.25 279.207031 Z M 347.25 279.207031 " fill-opacity="1" fill-rule="nonzero"/><path fill="#085049" d="M 364.089844 276.503906 C 362.167969 275.382812 360.085938 275.703125 359.285156 275.703125 C 359.125 275.703125 358.964844 275.703125 358.964844 275.703125 C 358.804688 275.703125 358.804688 275.542969 358.804688 275.382812 C 358.804688 275.222656 358.964844 275.222656 358.964844 275.222656 C 358.964844 275.222656 359.125 275.222656 359.125 275.222656 C 359.925781 275.0625 362.167969 274.742188 364.089844 276.023438 C 364.25 276.023438 364.25 276.183594 364.089844 276.34375 C 364.25 276.503906 364.25 276.503906 364.089844 276.503906 Z M 364.089844 276.503906 " fill-opacity="1" fill-rule="nonzero"/><path fill="#085049" d="M 350 276.023438 C 349.839844 276.023438 349.839844 276.023438 350 276.023438 C 348.078125 274.902344 345.996094 275.222656 345.195312 275.222656 C 345.035156 275.222656 345.035156 275.222656 344.875 275.222656 C 344.714844 275.222656 344.714844 275.0625 344.714844 274.902344 C 344.714844 274.742188 344.875 274.742188 344.875 274.742188 C 344.875 274.742188 345.035156 274.742188 345.035156 274.742188 C 345.835938 274.582031 348.078125 274.261719 350 275.542969 C 350.160156 275.542969 350.160156 275.703125 350 275.863281 C 350.160156 276.023438 350 276.023438 350 276.023438 Z M 350 276.023438 " fill-opacity="1" fill-rule="nonzero"/><path fill="#085049" d="M 354.160156 288.515625 C 354 288.515625 354 288.515625 354 288.355469 C 354 288.195312 354 288.035156 354.160156 288.035156 C 354.320312 287.875 354.960938 287.554688 355.121094 287.074219 C 355.121094 286.59375 354.800781 284.992188 354.480469 284.03125 C 354.480469 283.871094 354.480469 283.710938 354.640625 283.710938 C 354.800781 283.710938 354.960938 283.710938 354.960938 283.871094 C 354.960938 284.191406 355.601562 286.433594 355.601562 287.074219 C 355.441406 288.035156 354.480469 288.515625 354.160156 288.515625 C 354.320312 288.515625 354.320312 288.515625 354.160156 288.515625 Z M 354.160156 288.515625 " fill-opacity="1" fill-rule="nonzero"/><path fill="#085049" d="M 353.839844 293.796875 C 352.402344 293.796875 351.121094 293.15625 350.960938 292.996094 C 350.800781 292.996094 350.800781 292.835938 350.960938 292.675781 C 350.960938 292.515625 351.121094 292.515625 351.28125 292.675781 C 351.28125 292.675781 354.160156 294.277344 355.921875 292.675781 C 356.082031 292.675781 356.082031 292.675781 356.242188 292.675781 C 356.402344 292.675781 356.242188 292.835938 356.242188 292.996094 C 355.441406 293.636719 354.640625 293.796875 353.839844 293.796875 Z M 353.839844 293.796875 " fill-opacity="1" fill-rule="nonzero"/><path fill="#efc237" d="M 392.75 327.101562 C 392.429688 327.421875 392.109375 327.902344 391.789062 328.222656 C 390.1875 330.144531 388.585938 332.066406 386.664062 333.667969 C 385.066406 335.109375 383.304688 336.550781 381.542969 337.832031 C 380.582031 338.46875 379.621094 339.269531 378.660156 339.75 C 378.339844 339.910156 378.179688 340.070312 377.859375 340.230469 L 373.695312 336.230469 C 373.695312 336.230469 373.695312 338.789062 373.695312 342.632812 C 370.652344 344.234375 367.453125 345.515625 364.089844 346.476562 C 362.808594 346.796875 361.527344 347.117188 360.246094 347.4375 C 359.125 347.597656 358.003906 347.917969 356.882812 348.078125 C 354.480469 348.398438 351.921875 348.71875 349.359375 348.878906 C 348.71875 348.878906 348.078125 348.878906 347.4375 348.878906 C 346.796875 348.878906 345.996094 348.878906 345.355469 348.878906 C 344.234375 348.878906 343.113281 348.71875 341.992188 348.71875 C 336.390625 348.238281 330.945312 346.796875 325.980469 344.875 C 325.820312 344.875 325.660156 344.714844 325.5 344.714844 C 325.339844 344.714844 325.339844 344.714844 325.179688 344.554688 C 325.980469 339.589844 326.621094 335.589844 326.78125 334.308594 L 326.78125 333.988281 L 326.621094 333.988281 L 315.894531 333.027344 L 312.53125 332.707031 L 310.929688 332.546875 L 310.609375 332.546875 C 310.609375 332.546875 312.210938 323.097656 315.253906 313.972656 C 315.734375 312.691406 316.535156 311.570312 317.65625 310.609375 C 317.816406 310.449219 317.976562 310.289062 318.136719 310.289062 C 322.457031 306.765625 329.984375 305.164062 335.429688 304.367188 L 335.589844 304.367188 C 335.910156 304.367188 336.230469 304.207031 336.550781 304.207031 C 337.507812 304.046875 338.308594 304.046875 338.949219 303.886719 C 340.710938 303.726562 341.832031 303.566406 341.832031 303.566406 C 341.992188 303.566406 342.152344 303.726562 342.3125 303.726562 C 345.515625 305.007812 348.238281 306.285156 350.640625 306.605469 C 350.640625 306.605469 350.800781 306.605469 350.800781 306.605469 C 351.121094 306.605469 351.441406 306.765625 351.601562 306.765625 C 351.761719 306.765625 352.082031 306.765625 352.242188 306.765625 C 355.121094 306.765625 357.042969 305.484375 357.84375 304.6875 C 358.164062 304.367188 358.484375 304.046875 358.484375 304.046875 C 358.484375 304.046875 359.285156 304.046875 360.726562 304.207031 C 361.527344 304.367188 362.648438 304.527344 363.929688 304.6875 C 364.089844 304.6875 364.25 304.6875 364.25 304.847656 C 368.09375 305.644531 373.375 307.40625 378.019531 310.609375 C 382.664062 313.8125 388.90625 321.820312 392.75 327.101562 Z M 392.75 327.101562 " fill-opacity="1" fill-rule="nonzero"/><path fill="#309b7d" d="M 393.390625 326.300781 C 393.230469 326.621094 393.070312 326.78125 392.75 327.101562 C 392.429688 327.421875 392.109375 327.902344 391.789062 328.222656 C 390.1875 330.144531 388.585938 332.066406 386.664062 333.667969 C 385.066406 335.109375 383.304688 336.550781 381.542969 337.832031 C 380.582031 338.46875 379.621094 339.269531 378.660156 339.75 C 378.339844 339.910156 378.179688 340.070312 377.859375 340.230469 C 377.058594 340.710938 376.417969 341.191406 375.617188 341.511719 C 375.457031 341.351562 375.457031 341.191406 375.457031 341.191406 C 375.457031 341.191406 375.457031 341.351562 375.457031 341.511719 C 374.816406 341.832031 374.335938 342.152344 373.695312 342.472656 C 370.652344 344.074219 367.453125 345.355469 364.089844 346.316406 C 362.808594 346.636719 361.527344 346.957031 360.246094 347.277344 C 360.40625 341.191406 360.40625 335.910156 360.566406 332.066406 C 360.566406 331.90625 360.566406 331.90625 360.566406 331.90625 C 360.566406 329.664062 360.726562 327.902344 360.726562 326.78125 C 360.886719 321.5 361.6875 316.214844 362.328125 312.210938 C 362.488281 311.089844 362.648438 310.128906 362.808594 309.328125 C 363.289062 306.765625 363.769531 305.007812 363.929688 304.6875 C 363.929688 304.6875 371.773438 305.324219 378.339844 309.808594 C 382.664062 312.851562 389.226562 320.859375 393.390625 326.300781 Z M 393.390625 326.300781 " fill-opacity="1" fill-rule="nonzero"/><path fill="#309b7d" d="M 345.675781 329.34375 C 345.675781 330.785156 345.675781 333.347656 345.515625 336.550781 L 345.515625 339.429688 C 345.515625 342.3125 345.515625 345.515625 345.515625 349.039062 C 344.394531 349.039062 343.273438 348.878906 342.152344 348.878906 C 336.546875 348.398438 331.105469 346.957031 326.140625 345.035156 C 325.980469 345.035156 325.820312 344.875 325.660156 344.875 C 325.5 344.875 325.5 344.875 325.339844 344.714844 C 325.339844 344.714844 325.179688 344.714844 325.179688 344.714844 C 321.816406 343.273438 318.777344 341.671875 315.734375 339.75 C 315.894531 337.511719 315.894531 335.269531 316.054688 333.1875 C 316.535156 324.699219 317.015625 316.375 317.335938 312.53125 C 317.496094 311.730469 317.496094 311.25 317.65625 310.769531 C 317.65625 310.609375 317.816406 310.449219 317.816406 310.289062 C 322.296875 306.445312 335.429688 304.367188 335.429688 304.367188 C 335.75 304.6875 336.390625 305.324219 337.507812 306.925781 C 341.351562 310.929688 345.996094 318.9375 345.675781 329.34375 Z M 345.675781 329.34375 " fill-opacity="1" fill-rule="nonzero"/><path fill="#085049" d="M 345.675781 329.34375 C 345.675781 330.785156 345.675781 333.347656 345.515625 336.550781 L 345.515625 339.429688 C 345.515625 342.3125 345.515625 345.515625 345.515625 349.039062 C 344.394531 349.039062 343.273438 348.878906 342.152344 348.878906 C 339.429688 338.628906 336.546875 327.421875 336.546875 326.78125 C 336.707031 325.5 338.789062 321.019531 338.789062 321.019531 C 338.789062 321.019531 334.789062 319.578125 334.308594 318.617188 C 333.988281 317.65625 335.589844 305.324219 335.75 304.367188 L 337.828125 306.925781 C 341.351562 310.929688 345.996094 318.9375 345.675781 329.34375 Z M 345.675781 329.34375 " fill-opacity="1" fill-rule="nonzero"/><path fill="#085049" d="M 365.210938 321.339844 C 365.210938 321.339844 368.414062 326.300781 368.414062 327.261719 C 368.414062 327.742188 366.332031 337.03125 364.25 346.636719 C 362.96875 346.957031 361.6875 347.277344 360.40625 347.597656 C 360.566406 341.511719 360.566406 336.230469 360.726562 332.386719 C 360.726562 332.226562 360.726562 332.226562 360.726562 332.226562 C 360.726562 329.984375 360.886719 328.222656 360.886719 327.101562 C 361.046875 321.820312 361.847656 316.535156 362.488281 312.53125 C 362.648438 311.410156 362.808594 310.449219 362.96875 309.648438 C 363.449219 307.085938 363.929688 305.324219 364.089844 305.007812 C 364.25 305.324219 364.730469 306.445312 365.371094 307.886719 C 366.972656 311.570312 369.214844 317.335938 369.214844 317.816406 C 369.214844 318.136719 368.414062 318.777344 367.613281 319.578125 C 366.652344 320.21875 365.210938 321.339844 365.210938 321.339844 Z M 365.210938 321.339844 " fill-opacity="1" fill-rule="nonzero"/><path fill="#085049" d="M 350.160156 309.488281 L 351.921875 311.730469 C 351.921875 311.730469 354.320312 311.730469 354.320312 311.730469 C 354.320312 311.570312 355.761719 308.6875 355.761719 308.6875 L 352.5625 306.765625 Z M 350.160156 309.488281 " fill-opacity="1" fill-rule="nonzero"/><path fill="#085049" d="M 357.042969 348.398438 C 354.640625 348.71875 352.082031 349.039062 349.519531 349.199219 L 350 341.992188 L 350.480469 334.148438 L 350.800781 330.144531 L 351.921875 311.890625 L 354.320312 311.730469 L 355.601562 328.863281 L 355.761719 331.90625 L 356.242188 338.949219 Z M 357.042969 348.398438 " fill-opacity="1" fill-rule="nonzero"/><path fill="#ffffff" d="M 342.792969 300.683594 L 352.5625 306.765625 L 349.519531 310.449219 L 339.269531 303.726562 Z M 342.792969 300.683594 " fill-opacity="1" fill-rule="nonzero"/><path fill="#ffffff" d="M 352.5625 306.765625 L 358.644531 301.964844 L 361.046875 304.207031 L 356.082031 309.96875 Z M 352.5625 306.765625 " fill-opacity="1" fill-rule="nonzero"/><path fill="#309b7d" d="M 327.582031 315.734375 C 327.742188 316.054688 327.742188 320.539062 327.582031 325.019531 L 327.582031 325.660156 C 327.582031 325.980469 327.582031 326.300781 327.582031 326.621094 C 327.582031 330.304688 327.421875 333.507812 327.421875 333.507812 C 327.421875 333.507812 326.78125 339.269531 326.300781 344.714844 C 326.140625 344.714844 325.980469 344.554688 325.820312 344.554688 C 325.660156 344.554688 325.660156 344.554688 325.5 344.394531 C 325.5 344.394531 325.339844 344.394531 325.339844 344.394531 C 321.976562 342.953125 318.9375 341.351562 315.894531 339.429688 C 314.613281 338.628906 313.332031 337.671875 312.210938 336.710938 C 311.730469 336.390625 311.25 335.910156 310.769531 335.589844 C 310.609375 335.429688 310.449219 335.269531 310.289062 335.109375 C 310.769531 329.984375 311.410156 325.339844 311.890625 322.777344 C 313.332031 314.933594 317.335938 310.449219 317.976562 309.96875 C 317.976562 309.96875 318.136719 309.96875 318.296875 310.128906 C 320.054688 311.089844 327.261719 315.253906 327.582031 315.734375 Z M 327.582031 315.734375 " fill-opacity="1" fill-rule="nonzero"/><path fill="#085049" d="M 326.300781 345.035156 C 326.300781 345.035156 326.300781 344.875 326.300781 344.554688 C 326.300781 344.234375 326.300781 343.753906 326.300781 343.273438 C 326.300781 342.792969 326.300781 341.992188 326.300781 341.511719 C 326.300781 340.710938 326.460938 340.070312 326.460938 339.429688 C 326.621094 338.789062 326.621094 338.152344 326.78125 337.351562 C 326.941406 336.710938 326.941406 336.070312 327.101562 335.589844 C 327.261719 335.109375 327.261719 334.628906 327.421875 334.308594 C 327.421875 333.988281 327.582031 333.828125 327.582031 333.828125 C 327.582031 333.828125 327.582031 333.988281 327.582031 334.308594 C 327.582031 334.628906 327.582031 335.109375 327.582031 335.589844 C 327.582031 336.070312 327.582031 336.710938 327.582031 337.351562 C 327.582031 338.152344 327.421875 338.789062 327.421875 339.429688 C 327.261719 340.070312 327.261719 340.710938 327.101562 341.511719 C 326.941406 341.992188 326.941406 342.792969 326.78125 343.273438 C 326.621094 343.753906 326.621094 344.234375 326.460938 344.554688 C 326.460938 344.875 326.300781 345.035156 326.300781 345.035156 Z M 326.300781 345.035156 " fill-opacity="1" fill-rule="nonzero"/><path fill="#dcf6b1" d="M 453.914062 253.769531 L 625.082031 253.769531 L 625.082031 262.574219 L 453.914062 262.574219 Z M 453.914062 253.769531 " fill-opacity="1" fill-rule="nonzero"/><path fill="#dcf6b1" d="M 477.613281 283.390625 L 623.960938 283.390625 L 623.960938 291.234375 L 477.613281 291.234375 Z M 477.613281 283.390625 " fill-opacity="1" fill-rule="nonzero"/><path fill="#dcf6b1" d="M 477.613281 310.449219 L 623.960938 310.449219 L 623.960938 318.296875 L 477.613281 318.296875 Z M 477.613281 310.449219 " fill-opacity="1" fill-rule="nonzero"/><path fill="#dcf6b1" d="M 477.613281 337.671875 L 623.960938 337.671875 L 623.960938 345.515625 L 477.613281 345.515625 Z M 477.613281 337.671875 " fill-opacity="1" fill-rule="nonzero"/><path fill="#dcf6b1" d="M 477.613281 364.890625 L 623.960938 364.890625 L 623.960938 372.734375 L 477.613281 372.734375 Z M 477.613281 364.890625 " fill-opacity="1" fill-rule="nonzero"/><path fill="#dcf6b1" d="M 477.613281 391.949219 L 623.960938 391.949219 L 623.960938 399.796875 L 477.613281 399.796875 Z M 477.613281 391.949219 " fill-opacity="1" fill-rule="nonzero"/><path fill="#dcf6b1" d="M 453.914062 283.390625 L 461.921875 283.390625 L 461.921875 291.234375 L 453.914062 291.234375 Z M 453.914062 283.390625 " fill-opacity="1" fill-rule="nonzero"/><path fill="#dcf6b1" d="M 453.914062 310.449219 L 461.921875 310.449219 L 461.921875 318.296875 L 453.914062 318.296875 Z M 453.914062 310.449219 " fill-opacity="1" fill-rule="nonzero"/><path fill="#dcf6b1" d="M 453.914062 337.671875 L 461.921875 337.671875 L 461.921875 345.515625 L 453.914062 345.515625 Z M 453.914062 337.671875 " fill-opacity="1" fill-rule="nonzero"/><path fill="#dcf6b1" d="M 453.914062 364.890625 L 461.921875 364.890625 L 461.921875 372.734375 L 453.914062 372.734375 Z M 453.914062 364.890625 " fill-opacity="1" fill-rule="nonzero"/><path fill="#dcf6b1" d="M 453.914062 391.949219 L 461.921875 391.949219 L 461.921875 399.796875 L 453.914062 399.796875 Z M 453.914062 391.949219 " fill-opacity="1" fill-rule="nonzero"/><path fill="#dcf6b1" d="M 453.914062 451.515625 L 625.082031 451.515625 L 625.082031 460.320312 L 453.914062 460.320312 Z M 453.914062 451.515625 " fill-opacity="1" fill-rule="nonzero"/><path fill="#dcf6b1" d="M 477.613281 481.136719 L 623.960938 481.136719 L 623.960938 488.980469 L 477.613281 488.980469 Z M 477.613281 481.136719 " fill-opacity="1" fill-rule="nonzero"/><path fill="#dcf6b1" d="M 477.613281 508.195312 L 623.960938 508.195312 L 623.960938 516.042969 L 477.613281 516.042969 Z M 477.613281 508.195312 " fill-opacity="1" fill-rule="nonzero"/><path fill="#dcf6b1" d="M 477.613281 535.417969 L 623.960938 535.417969 L 623.960938 543.261719 L 477.613281 543.261719 Z M 477.613281 535.417969 " fill-opacity="1" fill-rule="nonzero"/><path fill="#dcf6b1" d="M 477.613281 562.636719 L 623.960938 562.636719 L 623.960938 570.484375 L 477.613281 570.484375 Z M 477.613281 562.636719 " fill-opacity="1" fill-rule="nonzero"/><path fill="#dcf6b1" d="M 477.613281 589.695312 L 623.960938 589.695312 L 623.960938 597.542969 L 477.613281 597.542969 Z M 477.613281 589.695312 " fill-opacity="1" fill-rule="nonzero"/><path fill="#dcf6b1" d="M 453.914062 481.136719 L 461.921875 481.136719 L 461.921875 488.980469 L 453.914062 488.980469 Z M 453.914062 481.136719 " fill-opacity="1" fill-rule="nonzero"/><path fill="#dcf6b1" d="M 453.914062 508.195312 L 461.921875 508.195312 L 461.921875 516.042969 L 453.914062 516.042969 Z M 453.914062 508.195312 " fill-opacity="1" fill-rule="nonzero"/><path fill="#dcf6b1" d="M 453.914062 535.417969 L 461.921875 535.417969 L 461.921875 543.261719 L 453.914062 543.261719 Z M 453.914062 535.417969 " fill-opacity="1" fill-rule="nonzero"/><path fill="#dcf6b1" d="M 453.914062 562.636719 L 461.921875 562.636719 L 461.921875 570.484375 L 453.914062 570.484375 Z M 453.914062 562.636719 " fill-opacity="1" fill-rule="nonzero"/><path fill="#dcf6b1" d="M 453.914062 589.695312 L 461.921875 589.695312 L 461.921875 597.542969 L 453.914062 597.542969 Z M 453.914062 589.695312 " fill-opacity="1" fill-rule="nonzero"/><path fill="#dcf6b1" d="M 300.523438 375.9375 L 389.707031 375.9375 L 389.707031 384.90625 L 300.523438 384.90625 Z M 300.523438 375.9375 " fill-opacity="1" fill-rule="nonzero"/><path fill="#dcf6b1" d="M 300.523438 398.835938 L 389.707031 398.835938 L 389.707031 407.800781 L 300.523438 407.800781 Z M 300.523438 398.835938 " fill-opacity="1" fill-rule="nonzero"/><path fill="#dcf6b1" d="M 300.523438 463.363281 L 389.707031 463.363281 L 389.707031 472.328125 L 300.523438 472.328125 Z M 300.523438 463.363281 " fill-opacity="1" fill-rule="nonzero"/><path fill="#dcf6b1" d="M 300.523438 489.941406 L 389.707031 489.941406 L 389.707031 498.910156 L 300.523438 498.910156 Z M 300.523438 489.941406 " fill-opacity="1" fill-rule="nonzero"/><path fill="#dcf6b1" d="M 300.523438 569.523438 L 389.707031 569.523438 L 389.707031 578.488281 L 300.523438 578.488281 Z M 300.523438 569.523438 " fill-opacity="1" fill-rule="nonzero"/><path fill="#dcf6b1" d="M 300.523438 516.363281 L 389.707031 516.363281 L 389.707031 525.328125 L 300.523438 525.328125 Z M 300.523438 516.363281 " fill-opacity="1" fill-rule="nonzero"/><path fill="#dcf6b1" d="M 300.523438 542.941406 L 389.707031 542.941406 L 389.707031 551.910156 L 300.523438 551.910156 Z M 300.523438 542.941406 " fill-opacity="1" fill-rule="nonzero"/><path fill="#085049" d="M 258.570312 638.050781 L 701.621094 638.050781 L 701.621094 642.214844 L 258.570312 642.214844 Z M 258.570312 638.050781 " fill-opacity="1" fill-rule="nonzero"/><path fill="#085049" d="M 122.789062 724.835938 L 535.257812 724.835938 L 535.257812 729 L 122.789062 729 Z M 122.789062 724.835938 " fill-opacity="1" fill-rule="nonzero"/><path fill="#085049" d="M 271.058594 431.5 L 259.371094 424.132812 L 316.535156 331.746094 L 328.382812 338.949219 Z M 271.058594 431.5 " fill-opacity="1" fill-rule="nonzero"/><path fill="#085049" d="M 377.699219 245.121094 C 351.441406 229.109375 317.175781 237.277344 301.164062 263.535156 C 285.152344 289.792969 293.316406 324.058594 319.578125 340.070312 C 345.835938 356.082031 380.101562 347.917969 396.113281 321.660156 C 412.125 295.558594 403.957031 261.292969 377.699219 245.121094 Z M 323.417969 333.828125 C 300.683594 319.898438 293.636719 290.273438 307.566406 267.539062 C 321.496094 244.800781 351.121094 237.757812 373.855469 251.6875 C 396.59375 265.617188 403.636719 295.238281 389.707031 317.976562 C 375.777344 340.550781 346.15625 347.757812 323.417969 333.828125 Z M 323.417969 333.828125 " fill-opacity="1" fill-rule="nonzero"/><path fill="#085049" d="M 269.621094 430.539062 L 260.8125 425.09375 C 258.25 423.492188 254.886719 424.292969 253.449219 426.855469 L 229.109375 466.40625 C 227.507812 468.96875 228.308594 472.328125 230.871094 473.769531 L 239.675781 479.214844 C 242.238281 480.816406 245.601562 480.015625 247.042969 477.453125 L 271.378906 437.90625 C 272.980469 435.34375 272.179688 432.140625 269.621094 430.539062 Z M 269.621094 430.539062 " fill-opacity="1" fill-rule="nonzero"/><path fill="#efc237" d="M 223.023438 378.179688 L 227.667969 377.859375 L 242.078125 377.058594 L 241.597656 369.855469 L 241.117188 363.449219 C 251.6875 365.53125 252.167969 361.847656 251.046875 357.683594 C 250.886719 356.722656 250.246094 354.964844 249.605469 353.042969 C 248.644531 350.160156 247.203125 346.476562 246.082031 343.273438 C 244.960938 340.390625 244 337.671875 243.359375 336.230469 C 243.039062 335.429688 242.878906 334.949219 242.878906 334.949219 C 238.234375 328.863281 228.148438 329.503906 221.742188 334.949219 C 218.222656 338.152344 218.382812 345.835938 219.503906 352.5625 C 220.304688 357.683594 221.421875 362.328125 221.742188 364.25 C 222.542969 368.734375 223.023438 378.179688 223.023438 378.179688 Z M 223.023438 378.179688 " fill-opacity="1" fill-rule="nonzero"/><path fill="#085049" d="M 246.5625 357.042969 C 246.402344 357.042969 246.402344 357.042969 246.5625 357.042969 C 246.402344 356.882812 246.5625 356.882812 246.5625 356.882812 L 250.886719 356.402344 C 250.886719 356.402344 251.046875 356.402344 251.046875 356.5625 C 251.046875 356.722656 251.046875 356.722656 250.886719 356.722656 Z M 246.5625 357.042969 " fill-opacity="1" fill-rule="nonzero"/><path fill="#085049" d="M 241.277344 363.609375 L 237.113281 362.328125 C 236.953125 362.328125 236.953125 362.167969 236.953125 362.167969 C 236.953125 362.007812 237.113281 362.007812 237.113281 362.007812 L 241.277344 363.289062 C 241.4375 363.289062 241.4375 363.449219 241.277344 363.609375 C 241.4375 363.609375 241.277344 363.609375 241.277344 363.609375 Z M 241.277344 363.609375 " fill-opacity="1" fill-rule="nonzero"/><path fill="#085049" d="M 236.15625 324.378906 C 240.15625 323.257812 244.800781 320.21875 247.683594 325.179688 C 250.566406 330.144531 243.039062 337.832031 237.914062 340.390625 C 232.792969 342.953125 231.511719 345.996094 232.792969 351.28125 C 234.074219 356.5625 229.910156 363.289062 221.902344 364.410156 C 219.984375 364.570312 216.941406 351.601562 214.859375 346.636719 C 212.777344 341.671875 210.855469 337.191406 213.417969 335.109375 C 215.980469 333.027344 218.222656 334.789062 220.460938 332.707031 C 222.542969 330.625 222.542969 326.621094 225.746094 325.820312 C 228.949219 325.019531 229.109375 326.460938 236.15625 324.378906 Z M 236.15625 324.378906 " fill-opacity="1" fill-rule="nonzero"/><path fill="#efc237" d="M 246.082031 342.953125 C 248.644531 349.359375 251.046875 351.441406 251.6875 351.921875 C 252.328125 352.402344 249.125 353.363281 248.804688 353.203125 C 247.203125 352.722656 246.082031 342.953125 246.082031 342.953125 Z M 246.082031 342.953125 " fill-opacity="1" fill-rule="nonzero"/><path fill="#085049" d="M 246.402344 346.796875 C 246.402344 347.0625 246.308594 347.289062 246.121094 347.476562 C 245.933594 347.664062 245.707031 347.757812 245.441406 347.757812 C 245.175781 347.757812 244.949219 347.664062 244.761719 347.476562 C 244.574219 347.289062 244.480469 347.0625 244.480469 346.796875 C 244.480469 346.53125 244.574219 346.304688 244.761719 346.117188 C 244.949219 345.929688 245.175781 345.835938 245.441406 345.835938 C 245.707031 345.835938 245.933594 345.929688 246.121094 346.117188 C 246.308594 346.304688 246.402344 346.53125 246.402344 346.796875 Z M 246.402344 346.796875 " fill-opacity="1" fill-rule="nonzero"/><path fill="#085049" d="M 242.65625 344.324219 L 244.984375 341.894531 L 245.445312 342.339844 L 243.121094 344.765625 Z M 242.65625 344.324219 " fill-opacity="1" fill-rule="nonzero"/><path fill="#efc237" d="M 213.578125 382.984375 C 215.5 385.066406 215.980469 388.109375 215.019531 390.667969 C 210.695312 402.359375 194.84375 447.832031 186.039062 445.109375 C 175.628906 442.066406 193.082031 402.199219 198.6875 393.070312 C 203.332031 385.386719 208.933594 378.179688 213.578125 382.984375 Z M 213.578125 382.984375 " fill-opacity="1" fill-rule="nonzero"/><path fill="#efc237" d="M 186.199219 418.53125 C 186.199219 418.53125 178.03125 437.585938 179.632812 445.589844 C 181.234375 453.597656 202.53125 481.9375 202.53125 481.9375 L 213.738281 472.007812 C 213.738281 472.007812 198.046875 441.90625 198.367188 441.105469 C 198.527344 440.304688 205.730469 423.652344 205.730469 423.652344 Z M 186.199219 418.53125 " fill-opacity="1" fill-rule="nonzero"/><path fill="#efc237" d="M 187.957031 439.34375 C 191.480469 439.34375 194.523438 441.585938 196.445312 444.46875 C 204.929688 458.558594 230.070312 503.234375 226.226562 509.316406 C 222.703125 514.761719 179.3125 450.394531 181.074219 446.390625 C 182.355469 443.347656 183.316406 439.34375 187.957031 439.34375 Z M 187.957031 439.34375 " fill-opacity="1" fill-rule="nonzero"/><path fill="#085049" d="M 189.398438 442.546875 C 189.398438 442.546875 189.238281 442.546875 189.238281 442.386719 C 189.238281 442.226562 189.238281 442.226562 189.238281 442.066406 C 192.761719 439.984375 198.046875 440.625 198.367188 440.625 C 198.527344 440.625 198.527344 440.785156 198.527344 440.785156 C 198.527344 440.945312 198.367188 440.945312 198.367188 440.945312 C 198.207031 441.105469 192.921875 440.625 189.398438 442.546875 Z M 189.398438 442.546875 " fill-opacity="1" fill-rule="nonzero"/><path fill="#085049" d="M 216.460938 374.496094 L 210.855469 409.882812 L 208.453125 425.09375 L 206.210938 428.296875 L 198.527344 424.933594 L 193.722656 422.851562 L 184.4375 418.851562 C 187.796875 409.082031 192.441406 399.15625 196.925781 391.789062 C 206.691406 376.738281 216.460938 374.496094 216.460938 374.496094 Z M 216.460938 374.496094 " fill-opacity="1" fill-rule="nonzero"/><path fill="#085049" d="M 210.855469 409.882812 L 208.453125 425.09375 L 206.210938 428.296875 L 198.527344 424.933594 L 193.722656 422.851562 C 196.605469 410.363281 202.371094 396.914062 202.371094 396.914062 C 202.371094 396.914062 206.210938 402.679688 210.855469 409.882812 Z M 210.855469 409.882812 " fill-opacity="1" fill-rule="nonzero"/><path fill="#efc237" d="M 267.859375 519.40625 C 272.179688 546.625 270.101562 569.683594 263.214844 570.804688 C 256.167969 571.921875 247.042969 550.789062 242.71875 523.40625 C 238.394531 496.1875 240.476562 473.128906 247.363281 472.007812 C 254.246094 471.050781 263.535156 492.183594 267.859375 519.40625 Z M 267.859375 519.40625 " fill-opacity="1" fill-rule="nonzero"/><path fill="#efc237" d="M 223.824219 529.171875 C 218.542969 556.230469 208.613281 577.207031 201.730469 575.765625 C 194.84375 574.484375 193.5625 551.269531 198.847656 524.207031 C 204.128906 497.148438 214.058594 476.171875 220.941406 477.613281 C 227.828125 478.894531 229.109375 501.953125 223.824219 529.171875 Z M 223.824219 529.171875 " fill-opacity="1" fill-rule="nonzero"/><path fill="#efc237" d="M 260.492188 566.160156 C 277.625 549.828125 278.425781 638.371094 275.863281 665.914062 C 273.460938 693.292969 271.21875 709.304688 263.695312 666.714844 C 256.167969 624.28125 253.765625 572.5625 260.492188 566.160156 Z M 260.492188 566.160156 " fill-opacity="1" fill-rule="nonzero"/><path fill="#efc237" d="M 254.085938 662.871094 L 258.410156 695.054688 L 278.105469 693.933594 L 278.425781 666.234375 Z M 254.085938 662.871094 " fill-opacity="1" fill-rule="nonzero"/><path fill="#efc237" d="M 167.144531 656.144531 L 160.097656 687.847656 L 178.992188 693.613281 L 188.757812 667.835938 Z M 167.144531 656.144531 " fill-opacity="1" fill-rule="nonzero"/><path fill="#efc237" d="M 202.210938 568.402344 C 223.984375 558.953125 194.203125 642.375 182.355469 667.355469 C 170.664062 692.332031 163.140625 706.582031 170.664062 663.992188 C 178.191406 621.398438 193.5625 572.082031 202.210938 568.402344 Z M 202.210938 568.402344 " fill-opacity="1" fill-rule="nonzero"/><path fill="#085049" d="M 186.679688 492.824219 C 186.679688 492.824219 206.371094 503.554688 232.632812 488.820312 C 258.890625 474.089844 233.753906 471.847656 232.792969 471.847656 C 207.972656 472.808594 186.679688 492.824219 186.679688 492.824219 Z M 186.679688 492.824219 " fill-opacity="1" fill-rule="nonzero"/><path fill="#309b7d" d="M 279.546875 676.320312 L 250.246094 677.121094 L 243.039062 569.84375 L 234.714844 533.335938 C 234.714844 533.335938 231.992188 541.980469 228.949219 552.070312 C 225.90625 562.15625 222.542969 573.84375 221.421875 579.449219 C 219.183594 590.816406 192.601562 674.398438 192.601562 674.398438 L 162.5 667.035156 L 188.597656 571.601562 L 200.929688 496.988281 L 203.808594 479.695312 L 254.886719 474.730469 L 261.773438 474.089844 C 261.773438 474.089844 277.945312 556.390625 278.746094 568.722656 C 279.546875 580.730469 279.546875 676.320312 279.546875 676.320312 Z M 279.546875 676.320312 " fill-opacity="1" fill-rule="nonzero"/><path fill="#085049" d="M 262.09375 476.492188 C 260.171875 479.054688 223.183594 483.21875 202.210938 486.261719 C 193.242188 487.542969 186.679688 492.664062 186.679688 492.664062 C 194.042969 470.890625 199.808594 430.21875 201.089844 402.359375 C 202.371094 374.496094 222.0625 372.574219 222.0625 372.574219 L 242.878906 374.335938 C 250.246094 379.621094 256.96875 388.585938 257.769531 408.921875 C 257.769531 410.042969 257.929688 411.324219 257.929688 412.605469 C 258.410156 419.011719 259.371094 426.695312 260.492188 434.542969 C 260.972656 438.542969 261.453125 442.707031 261.773438 446.710938 C 263.054688 461.441406 263.214844 474.890625 262.09375 476.492188 Z M 262.09375 476.492188 " fill-opacity="1" fill-rule="nonzero"/><path fill="#085049" d="M 221.101562 372.734375 L 222.382812 369.695312 L 242.078125 371.457031 L 243.039062 374.65625 Z M 221.101562 372.734375 " fill-opacity="1" fill-rule="nonzero"/><path fill="#085049" d="M 261.773438 446.871094 C 250.566406 428.9375 241.597656 398.675781 241.597656 398.675781 C 241.597656 398.675781 252.808594 406.519531 257.929688 412.765625 C 258.410156 419.171875 259.371094 426.855469 260.492188 434.703125 C 260.972656 438.703125 261.453125 442.867188 261.773438 446.871094 Z M 261.773438 446.871094 " fill-opacity="1" fill-rule="nonzero"/><path fill="#efc237" d="M 243.839844 378.660156 C 246.5625 378.179688 249.285156 379.460938 251.046875 381.703125 C 258.410156 391.789062 287.550781 430.058594 280.507812 435.984375 C 272.179688 442.867188 248.644531 406.359375 244.160156 396.59375 C 240.15625 388.585938 237.273438 379.941406 243.839844 378.660156 Z M 243.839844 378.660156 " fill-opacity="1" fill-rule="nonzero"/><path fill="#efc237" d="M 315.734375 370.175781 C 315.734375 370.175781 297 435.183594 282.75 440.144531 C 268.5 445.109375 255.207031 420.292969 255.207031 420.292969 L 273.140625 408.121094 L 276.183594 413.085938 L 277.625 415.167969 L 308.367188 364.410156 Z M 315.734375 370.175781 " fill-opacity="1" fill-rule="nonzero"/><path fill="#efc237" d="M 277.625 415.167969 C 277.625 415.167969 274.582031 417.890625 273.621094 423.011719 C 273.621094 423.011719 273.300781 418.53125 276.34375 413.085938 Z M 277.625 415.167969 " fill-opacity="1" fill-rule="nonzero"/><path fill="#efc237" d="M 274.421875 432.941406 C 272.660156 429.898438 272.820312 426.214844 274.421875 423.011719 C 281.949219 408.601562 307.085938 363.609375 314.132812 363.769531 C 320.695312 363.929688 288.351562 434.542969 284.03125 435.183594 C 280.828125 435.664062 276.824219 437.105469 274.421875 432.941406 Z M 274.421875 432.941406 " fill-opacity="1" fill-rule="nonzero"/><path fill="#efc237" d="M 308.207031 366.011719 L 308.046875 365.210938 L 307.40625 358.644531 C 307.566406 357.363281 307.886719 356.082031 308.527344 354.964844 L 312.691406 350.960938 C 312.691406 350.960938 314.453125 350.960938 312.691406 353.683594 C 312.210938 354.484375 312.210938 355.761719 312.371094 356.882812 L 314.453125 354.324219 L 319.097656 348.878906 C 320.535156 347.4375 324.539062 351.28125 323.257812 354.964844 C 323.257812 354.964844 322.457031 361.207031 320.375 363.128906 L 315.734375 370.335938 Z M 308.207031 366.011719 " fill-opacity="1" fill-rule="nonzero"/><path fill="#085049" d="M 273.78125 408.28125 L 254.40625 421.414062 C 253.765625 420.453125 252.328125 418.210938 251.847656 417.25 C 240.476562 398.355469 224.464844 380.261719 242.71875 374.496094 C 242.71875 374.496094 254.726562 376.578125 262.09375 389.386719 C 266.097656 396.273438 271.378906 404.121094 273.78125 408.28125 Z M 273.78125 408.28125 " fill-opacity="1" fill-rule="nonzero"/><path fill="#085049" d="M 273.621094 423.011719 C 273.460938 423.011719 273.460938 423.011719 273.621094 423.011719 C 273.460938 423.011719 273.460938 422.851562 273.460938 422.851562 C 274.421875 417.730469 277.625 415.007812 277.625 415.007812 C 277.785156 415.007812 277.785156 415.007812 277.945312 415.007812 C 277.945312 415.167969 277.945312 415.167969 277.945312 415.328125 C 277.945312 415.328125 274.902344 418.050781 273.941406 423.011719 C 273.78125 423.011719 273.621094 423.011719 273.621094 423.011719 Z M 273.621094 423.011719 " fill-opacity="1" fill-rule="nonzero"/><path fill="#085049" d="M 279.066406 693.132812 C 279.066406 693.132812 283.390625 700.339844 296.839844 709.304688 C 310.289062 718.273438 313.492188 715.871094 313.972656 719.554688 C 314.453125 723.234375 257.929688 723.714844 257.929688 723.714844 L 257.769531 693.773438 C 257.929688 693.613281 278.90625 692.332031 279.066406 693.132812 Z M 279.066406 693.132812 " fill-opacity="1" fill-rule="nonzero"/><path fill="#085049" d="M 182.515625 685.769531 C 182.515625 685.769531 178.351562 693.453125 186.039062 705.460938 C 190.519531 712.507812 190.679688 713.148438 190.039062 716.671875 C 189.398438 720.195312 152.574219 709.144531 152.574219 709.144531 L 161.21875 680.484375 C 161.21875 680.484375 182.675781 684.96875 182.515625 685.769531 Z M 182.515625 685.769531 " fill-opacity="1" fill-rule="nonzero"/><path fill="#309b7d" d="M 643.816406 529.011719 L 649.101562 528.371094 L 644.136719 531.414062 C 647.019531 545.183594 655.34375 554.789062 655.984375 555.429688 C 657.90625 557.671875 665.433594 552.550781 666.875 551.269531 C 672.316406 546.304688 674.878906 539.097656 677.28125 532.214844 C 680.164062 523.886719 683.046875 515.5625 686.566406 507.554688 C 689.449219 501.152344 692.492188 494.746094 695.535156 488.5 L 692.8125 480.65625 L 699.378906 480.015625 C 700.019531 478.574219 700.660156 477.132812 701.300781 475.851562 C 704.019531 469.609375 706.582031 463.203125 708.984375 456.796875 C 707.863281 457.277344 676.800781 468.808594 658.066406 488.183594 L 660.46875 492.183594 L 653.261719 493.625 C 650.863281 496.667969 648.941406 499.710938 647.339844 503.074219 C 643.175781 512.359375 642.695312 521.324219 643.816406 529.011719 Z M 643.816406 529.011719 " fill-opacity="1" fill-rule="nonzero"/><path fill="#309b7d" d="M 578.96875 511.238281 C 579.609375 512.039062 580.25 512.839844 580.730469 513.640625 C 586.492188 521.804688 592.898438 529.492188 599.625 536.699219 L 602.984375 534.457031 C 602.984375 534.457031 601.867188 536.699219 601.066406 538.296875 C 606.988281 544.542969 613.394531 550.46875 620.117188 555.910156 C 621.878906 557.351562 624.121094 558.953125 626.363281 559.914062 L 629.085938 556.871094 C 629.085938 556.871094 629.085938 558.953125 629.085938 560.714844 C 630.046875 560.875 631.167969 561.035156 632.128906 560.875 C 633.570312 560.714844 638.53125 559.753906 639.332031 558.3125 C 639.332031 558.3125 646.058594 543.101562 633.25 529.652344 C 631.96875 528.210938 630.367188 527.089844 628.765625 525.96875 L 626.523438 528.851562 L 622.839844 522.765625 C 619.316406 521.167969 615.796875 519.886719 612.273438 518.765625 C 604.585938 516.203125 596.421875 514.441406 588.414062 513 C 585.535156 512.199219 582.171875 511.71875 578.96875 511.238281 Z M 578.96875 511.238281 " fill-opacity="1" fill-rule="nonzero"/><path fill="#309b7d" d="M 673.117188 568.5625 C 681.925781 572.402344 692.171875 569.042969 701.460938 563.4375 C 700.179688 560.875 697.777344 555.910156 697.617188 555.589844 C 697.457031 555.269531 702.097656 559.113281 704.820312 561.195312 C 718.113281 552.390625 728.679688 540.058594 728.679688 540.058594 C 728.679688 540.058594 693.613281 537.816406 680.484375 544.542969 C 679.203125 545.183594 678.082031 545.984375 677.121094 546.785156 L 678.242188 549.507812 L 675.359375 548.707031 C 669.273438 556.871094 673.117188 568.5625 673.117188 568.5625 Z M 673.117188 568.5625 " fill-opacity="1" fill-rule="nonzero"/><path fill="#085049" d="M 656.304688 594.5 C 656.144531 593.699219 644.617188 517.964844 688.648438 475.53125 L 689.769531 476.652344 C 646.21875 518.445312 657.746094 593.378906 657.90625 594.179688 Z M 656.304688 594.5 " fill-opacity="1" fill-rule="nonzero"/><path fill="#085049" d="M 654.542969 605.066406 C 654.542969 604.425781 649.742188 545.984375 601.066406 526.289062 L 601.707031 524.847656 C 651.34375 544.863281 656.144531 604.269531 656.144531 604.90625 Z M 654.542969 605.066406 " fill-opacity="1" fill-rule="nonzero"/><path fill="#085049" d="M 658.386719 590.65625 L 656.945312 589.855469 C 657.105469 589.535156 677.28125 551.910156 707.542969 545.023438 L 707.863281 546.625 C 678.402344 553.351562 658.707031 590.175781 658.386719 590.65625 Z M 658.386719 590.65625 " fill-opacity="1" fill-rule="nonzero"/><path fill="#085049" d="M 624.761719 587.617188 L 639.652344 641.414062 L 670.875 641.414062 L 685.605469 587.933594 C 685.605469 587.777344 685.605469 587.777344 685.605469 587.777344 L 685.605469 587.617188 Z M 624.761719 587.617188 " fill-opacity="1" fill-rule="nonzero"/><path fill="#ffffff" d="M 515.082031 111.742188 L 537.816406 130.316406 L 515.082031 150.011719 Z M 515.082031 111.742188 " fill-opacity="1" fill-rule="nonzero"/><path fill="#ffffff" d="M 540.378906 128.234375 L 515.082031 107.738281 L 515.082031 103.898438 C 515.082031 103.738281 515.242188 103.417969 515.5625 103.417969 L 594.980469 103.417969 C 595.140625 103.417969 595.460938 103.578125 595.460938 103.898438 L 595.460938 107.738281 L 570 128.234375 L 568.722656 129.195312 L 567.441406 130.15625 L 555.109375 140.242188 L 542.78125 130.15625 L 541.5 129.195312 Z M 540.378906 128.234375 " fill-opacity="1" fill-rule="nonzero"/><path fill="#ffffff" d="M 570 132.238281 L 593.539062 152.734375 L 517.003906 152.734375 L 540.378906 132.238281 L 555.109375 144.40625 Z M 570 132.238281 " fill-opacity="1" fill-rule="nonzero"/><path fill="#ffffff" d="M 595.300781 111.742188 L 595.300781 150.011719 L 572.402344 130.316406 Z M 595.300781 111.742188 " fill-opacity="1" fill-rule="nonzero"/><path fill="#ffffff" d="M 542.78125 130.15625 L 541.5 129.195312 L 555.109375 117.347656 L 568.722656 129.195312 L 567.601562 130.15625 L 555.109375 140.242188 Z M 542.78125 130.15625 " fill-opacity="1" fill-rule="nonzero"/><path fill="#ffffff" d="M 593.539062 152.734375 L 517.003906 152.734375 L 540.378906 132.238281 L 555.109375 144.40625 L 570 132.238281 Z M 593.539062 152.734375 " fill-opacity="1" fill-rule="nonzero"/><path fill="#ffffff" d="M 555.109375 115.265625 L 540.21875 128.234375 L 542.78125 130.15625 L 555.109375 119.429688 L 567.441406 130.15625 L 568.722656 129.195312 L 570 128.234375 Z M 555.109375 115.265625 " fill-opacity="1" fill-rule="nonzero"/><path fill="#ffffff" d="M 595.300781 103.738281 L 595.300781 107.578125 L 570 128.234375 L 568.722656 129.195312 L 567.441406 130.15625 L 555.109375 140.242188 L 542.78125 130.15625 L 540.21875 128.234375 L 514.921875 107.738281 L 514.921875 103.898438 C 514.921875 103.738281 515.082031 103.417969 515.402344 103.417969 L 594.820312 103.417969 C 595.140625 103.257812 595.300781 103.417969 595.300781 103.738281 Z M 595.300781 103.738281 " fill-opacity="1" fill-rule="nonzero"/><path fill="#085049" d="M 465.765625 643.976562 L 399.15625 643.976562 L 395.3125 615.316406 C 394.671875 610.832031 396.113281 606.1875 399.15625 602.828125 C 402.199219 599.464844 406.519531 597.382812 411.003906 597.382812 L 445.75 597.382812 C 453.59375 597.382812 460.320312 603.308594 461.441406 611.152344 Z M 406.199219 635.972656 L 456.636719 635.972656 L 453.433594 612.273438 C 452.957031 608.429688 449.59375 605.546875 445.75 605.546875 L 411.003906 605.546875 C 408.761719 605.546875 406.679688 606.507812 405.238281 608.269531 C 403.796875 610.03125 403.160156 612.113281 403.316406 614.355469 Z M 406.199219 635.972656 " fill-opacity="1" fill-rule="nonzero"/><path fill="#085049" d="M 496.347656 619.800781 L 492.664062 658.226562 L 486.257812 725.316406 L 340.390625 725.316406 L 349.199219 634.210938 L 349.839844 627.003906 C 350.160156 623.480469 352.882812 620.601562 356.242188 619.800781 C 356.722656 619.640625 357.363281 619.640625 358.003906 619.640625 L 496.347656 619.640625 Z M 496.347656 619.800781 " fill-opacity="1" fill-rule="nonzero"/><path fill="#085049" d="M 516.683594 725.316406 L 370.972656 725.316406 L 363.449219 646.378906 L 360.886719 619.640625 L 498.910156 619.640625 C 503.390625 619.640625 507.074219 623 507.394531 627.324219 L 509.476562 648.941406 Z M 516.683594 725.316406 " fill-opacity="1" fill-rule="nonzero"/><path fill="#309b7d" d="M 364.5 656.425781 L 366.09375 656.257812 L 373.015625 721.378906 L 371.421875 721.546875 Z M 364.5 656.425781 " fill-opacity="1" fill-rule="nonzero"/><path fill="#085049" d="M 356.242188 619.960938 L 354.480469 725.316406 L 340.390625 725.316406 L 349.839844 627.003906 C 350.160156 623.480469 352.882812 620.601562 356.242188 619.960938 Z M 356.242188 619.960938 " fill-opacity="1" fill-rule="nonzero"/><path fill="#309b7d" d="M 509.636719 649.261719 L 492.984375 658.226562 L 445.429688 680.964844 L 363.609375 646.539062 L 360.40625 619.800781 L 499.070312 619.800781 C 503.550781 619.800781 507.234375 623.160156 507.554688 627.484375 Z M 509.636719 649.261719 " fill-opacity="1" fill-rule="nonzero"/><path fill="#efc237" d="M 445.75 692.8125 C 442.226562 693.132812 439.023438 690.570312 438.703125 687.050781 L 437.421875 674.71875 C 437.101562 671.195312 439.664062 667.996094 443.1875 667.675781 C 446.710938 667.355469 449.914062 669.917969 450.234375 673.4375 L 451.515625 685.769531 C 451.835938 689.289062 449.273438 692.492188 445.75 692.8125 Z M 445.75 692.8125 " fill-opacity="1" fill-rule="nonzero"/><g clip-path="url(#e3de09bc24)"><g clip-path="url(#a65357aecd)"><g clip-path="url(#75cb40f3f7)"><path fill="#309b7d" d="M 438.246094 452.855469 L 415.214844 443.351562 L 416.515625 438.445312 L 419.246094 428.078125 C 420.761719 422.355469 426.640625 418.921875 432.367188 420.425781 C 438.085938 421.9375 441.519531 427.820312 440.019531 433.542969 L 437.285156 443.910156 L 441.582031 445.039062 L 444.3125 434.671875 C 445.351562 430.757812 444.792969 426.667969 442.746094 423.160156 C 440.707031 419.660156 437.421875 417.160156 433.496094 416.121094 C 429.582031 415.082031 425.496094 415.640625 421.988281 417.6875 C 418.488281 419.722656 415.988281 423.007812 414.945312 426.933594 L 411.230469 441.023438 L 411.070312 441.640625 L 409.171875 440.859375 C 406.726562 439.847656 403.929688 441.019531 402.925781 443.457031 L 395.183594 462.214844 C 394.179688 464.648438 395.335938 467.453125 397.78125 468.460938 L 426.855469 480.460938 C 429.289062 481.464844 432.09375 480.308594 433.101562 477.863281 L 440.84375 459.105469 C 441.835938 456.664062 440.679688 453.863281 438.246094 452.855469 Z M 412.203125 464.949219 L 416.859375 459.234375 C 416.050781 458.269531 415.789062 456.910156 416.304688 455.660156 C 417.042969 453.878906 419.070312 453.035156 420.851562 453.769531 C 422.628906 454.503906 423.472656 456.535156 422.738281 458.3125 C 422.226562 459.554688 421.082031 460.34375 419.824219 460.457031 L 419.097656 467.792969 Z M 412.203125 464.949219 " fill-opacity="1" fill-rule="nonzero"/></g></g></g><g clip-path="url(#7dd778c64a)"><g clip-path="url(#073d60ce2c)"><g clip-path="url(#f9a336065f)"><path fill="#309b7d" d="M 446.691406 450.238281 L 453.089844 451.453125 C 453.613281 451.550781 454.101562 451.214844 454.210938 450.691406 C 454.304688 450.167969 453.96875 449.679688 453.449219 449.574219 L 447.054688 448.359375 C 446.527344 448.261719 446.039062 448.597656 445.933594 449.117188 C 445.835938 449.644531 446.179688 450.148438 446.691406 450.238281 Z M 446.691406 450.238281 " fill-opacity="1" fill-rule="nonzero"/></g></g></g><g clip-path="url(#596683b28d)"><g clip-path="url(#25a91dab4d)"><g clip-path="url(#de8e888b6d)"><path fill="#309b7d" d="M 450.988281 457.550781 L 446.113281 453.238281 C 445.71875 452.890625 445.109375 452.933594 444.761719 453.328125 C 444.410156 453.71875 444.453125 454.328125 444.847656 454.679688 L 449.722656 458.992188 C 450.117188 459.339844 450.726562 459.296875 451.074219 458.902344 C 451.425781 458.511719 451.382812 457.902344 450.988281 457.550781 Z M 450.988281 457.550781 " fill-opacity="1" fill-rule="nonzero"/></g></g></g><g clip-path="url(#fefaf776dc)"><g clip-path="url(#bf9a0f479b)"><g clip-path="url(#56529e2d25)"><path fill="#309b7d" d="M 453.730469 443.15625 C 454.222656 442.96875 454.484375 442.433594 454.304688 441.925781 C 454.117188 441.433594 453.582031 441.171875 453.078125 441.351562 L 446.960938 443.5625 C 446.46875 443.746094 446.207031 444.285156 446.386719 444.789062 C 446.574219 445.285156 447.109375 445.546875 447.617188 445.363281 Z M 453.730469 443.15625 " fill-opacity="1" fill-rule="nonzero"/></g></g></g></svg>