<svg xmlns="http://www.w3.org/2000/svg" xmlns:xlink="http://www.w3.org/1999/xlink" width="1080" zoomAndPan="magnify" viewBox="0 0 810 809.999993" height="1080" preserveAspectRatio="xMidYMid meet" version="1.0"><defs><clipPath id="5f7a03480e"><path d="M 139.484375 197.234375 L 670.484375 197.234375 L 670.484375 612.734375 L 139.484375 612.734375 Z M 139.484375 197.234375 " clip-rule="nonzero"/></clipPath><clipPath id="4b2d6854e2"><path d="M 224.855469 501.050781 L 240.605469 501.050781 L 240.605469 516.800781 L 224.855469 516.800781 Z M 224.855469 501.050781 " clip-rule="nonzero"/></clipPath></defs><g clip-path="url(#5f7a03480e)"><path fill="#000000" d="M 302.195312 309.113281 C 309.488281 258.894531 352.742188 220.320312 404.984375 220.320312 C 457.226562 220.320312 500.480469 258.894531 507.777344 309.113281 C 508.277344 312.558594 510.304688 315.589844 513.292969 317.371094 C 516.28125 319.152344 519.914062 319.488281 523.179688 318.289062 C 533.09375 314.644531 543.816406 312.652344 555.027344 312.652344 C 606.023438 312.652344 647.363281 353.992188 647.363281 404.984375 C 647.363281 455.976562 606.023438 497.316406 555.027344 497.316406 L 474.238281 497.316406 C 467.863281 497.316406 462.695312 502.488281 462.695312 508.859375 C 462.695312 515.234375 467.863281 520.402344 474.238281 520.402344 L 555.027344 520.402344 C 618.773438 520.402344 670.445312 468.726562 670.445312 404.984375 C 670.445312 341.242188 618.773438 289.566406 555.027344 289.566406 C 545.738281 289.566406 536.691406 290.667969 528.019531 292.75 C 514.023438 237.839844 464.253906 197.234375 404.984375 197.234375 C 345.714844 197.234375 295.949219 237.839844 281.953125 292.75 C 273.28125 290.667969 264.234375 289.566406 254.941406 289.566406 C 191.199219 289.566406 139.523438 341.242188 139.523438 404.984375 C 139.523438 468.726562 191.199219 520.402344 254.941406 520.402344 L 335.734375 520.402344 C 342.109375 520.402344 347.277344 515.234375 347.277344 508.859375 C 347.277344 502.488281 342.109375 497.316406 335.734375 497.316406 L 254.941406 497.316406 C 203.945312 497.316406 162.609375 455.976562 162.609375 404.984375 C 162.609375 353.992188 203.945312 312.652344 254.941406 312.652344 C 266.15625 312.652344 276.878906 314.644531 286.792969 318.289062 C 290.058594 319.488281 293.691406 319.152344 296.679688 317.371094 C 299.667969 315.589844 301.695312 312.558594 302.195312 309.113281 Z M 482.398438 408.363281 L 413.148438 339.117188 C 408.640625 334.609375 401.332031 334.609375 396.824219 339.117188 L 327.574219 408.363281 C 323.066406 412.871094 323.066406 420.179688 327.574219 424.6875 C 332.082031 429.195312 339.390625 429.195312 343.894531 424.6875 L 393.445312 375.140625 L 393.445312 601.191406 C 393.445312 607.566406 398.613281 612.734375 404.984375 612.734375 C 411.359375 612.734375 416.527344 607.566406 416.527344 601.191406 L 416.527344 375.140625 L 466.074219 424.6875 C 470.582031 429.195312 477.890625 429.195312 482.398438 424.6875 C 486.90625 420.179688 486.90625 412.871094 482.398438 408.363281 Z M 482.398438 408.363281 " fill-opacity="1" fill-rule="evenodd"/></g><g clip-path="url(#4b2d6854e2)"><path fill="#000000" d="M 232.730469 501.050781 C 237.078125 501.050781 240.605469 504.574219 240.605469 508.925781 C 240.605469 513.273438 237.078125 516.800781 232.730469 516.800781 C 228.378906 516.800781 224.855469 513.273438 224.855469 508.925781 C 224.855469 504.574219 228.378906 501.050781 232.730469 501.050781 Z M 232.730469 501.050781 " fill-opacity="1" fill-rule="evenodd"/></g></svg>