<svg xmlns="http://www.w3.org/2000/svg" xmlns:xlink="http://www.w3.org/1999/xlink" width="1080" zoomAndPan="magnify" viewBox="0 0 810 809.999993" height="1080" preserveAspectRatio="xMidYMid meet" version="1.0"><defs><clipPath id="bb4ba58788"><path d="M 185.992188 378.492188 L 203.992188 378.492188 L 203.992188 396.492188 L 185.992188 396.492188 Z M 185.992188 378.492188 " clip-rule="nonzero"/></clipPath><clipPath id="6d208405d9"><path d="M 171.347656 119.425781 L 638.597656 119.425781 L 638.597656 690.925781 L 171.347656 690.925781 Z M 171.347656 119.425781 " clip-rule="nonzero"/></clipPath></defs><g clip-path="url(#bb4ba58788)"><path fill="#000000" d="M 194.992188 378.492188 C 199.964844 378.492188 203.992188 382.519531 203.992188 387.492188 C 203.992188 392.460938 199.964844 396.492188 194.992188 396.492188 C 190.023438 396.492188 185.992188 392.460938 185.992188 387.492188 C 185.992188 382.519531 190.023438 378.492188 194.992188 378.492188 Z M 194.992188 378.492188 " fill-opacity="1" fill-rule="evenodd"/></g><g clip-path="url(#6d208405d9)"><path fill="#000000" d="M 249.222656 171.382812 C 234.886719 171.382812 223.261719 183.011719 223.261719 197.359375 L 223.261719 612.988281 C 223.261719 627.335938 234.886719 638.964844 249.222656 638.964844 L 560.722656 638.964844 C 575.058594 638.964844 586.679688 627.335938 586.679688 612.988281 L 586.679688 325.160156 C 586.679688 317.578125 583.367188 310.375 577.617188 305.4375 L 428.617188 177.636719 C 423.914062 173.601562 417.921875 171.382812 411.726562 171.382812 Z M 171.347656 197.359375 C 171.347656 154.320312 206.210938 119.429688 249.222656 119.429688 L 411.726562 119.429688 C 430.316406 119.429688 448.292969 126.082031 462.40625 138.1875 L 611.402344 265.992188 C 628.664062 280.796875 638.597656 302.410156 638.597656 325.160156 L 638.597656 612.988281 C 638.597656 656.03125 603.730469 690.921875 560.722656 690.921875 L 249.222656 690.921875 C 206.210938 690.921875 171.347656 656.03125 171.347656 612.988281 Z M 171.347656 197.359375 " fill-opacity="1" fill-rule="evenodd"/></g><path fill="#000000" d="M 404.972656 249.3125 L 404.972656 158.394531 L 456.886719 158.394531 L 456.886719 249.3125 C 456.886719 263.660156 468.511719 275.289062 482.847656 275.289062 L 599.660156 275.289062 L 599.660156 327.242188 L 482.847656 327.242188 C 439.835938 327.242188 404.972656 292.351562 404.972656 249.3125 Z M 404.972656 249.3125 " fill-opacity="1" fill-rule="evenodd"/><path fill="#000000" d="M 301.136719 535.058594 L 508.804688 535.058594 L 508.804688 587.011719 L 301.136719 587.011719 Z M 301.136719 535.058594 " fill-opacity="1" fill-rule="evenodd"/><path fill="#000000" d="M 379.011719 353.21875 L 430.929688 353.21875 L 430.929688 496.09375 L 379.011719 496.09375 Z M 379.011719 353.21875 " fill-opacity="1" fill-rule="evenodd"/><path fill="#000000" d="M 386.621094 334.851562 C 396.757812 324.707031 413.191406 324.707031 423.328125 334.851562 L 501.203125 412.78125 L 464.496094 449.519531 L 404.972656 389.957031 L 345.453125 449.519531 L 308.742188 412.78125 Z M 386.621094 334.851562 " fill-opacity="1" fill-rule="evenodd"/></svg>